<svg xmlns="http://www.w3.org/2000/svg" viewBox="0 0 1846.19 1937.23"><defs><style>.a{fill:#ec1c24;}.b{fill:#009bd6;}.c{fill:#f47f27;}</style></defs><title>Logo</title><path class="a" d="M979.68,277.43c28.13,2.71,51.61-8.71,73.54-24.4,4.94-3.53,9.13-8.12,13.51-12.38,1.75-1.7,2.74-2.56,5.15-.52,7.61,6.41,15.87,12.07,23.29,18.68q27.46,24.44,53.6,50.32c2.74,2.7,2.73,4.4.41,7.27-6.14,7.62-13,14.69-18.24,23-8.89,14-15,28.86-17.6,45.42-4.88,31.49,1.68,60.26,19.2,86.55,9.78,14.66,22.82,26,38.12,34.79,11.33,6.52,23.12,12.31,36.07,13.67,10.7,1.12,21.58,3.12,32.5.81,4.69-1,9.55.21,14.37-.65,7.21-1.3,13.8-4.61,20.93-6.06,3.45-.71,6.11-1.56,8.21,3.6,12.78,31.41,21.87,63.92,31,96.51,4.94,17.73,8,35.77,11.68,53.7.72,3.49.15,7.15.91,10.77.45,2.16-.85,4.36-4,5.13-8.47,2-17,4.12-24.74,8.33a159.09,159.09,0,0,0-30.06,20.79,114.21,114.21,0,0,0-28.37,37.6c-5.92,12.83-9.81,26.17-9.62,40.5.19,13.8-.47,27.55,3.69,41.12a111.7,111.7,0,0,0,20.48,38.9c12.08,14.6,26.54,26.59,43.73,34.92a105,105,0,0,0,16.2,6.47c3.44,1,3.33,3.13,2.81,5.25-8,32.35-17.18,64.37-29.14,95.53-1.77,4.61-4.5,5.95-9.11,4.68a145.75,145.75,0,0,0-49.75-5.16,95.46,95.46,0,0,0-30.06,7.58c-17.28,7.34-33.43,16.6-45.88,31-14,16.16-24.74,33.95-28.14,55.73a185.85,185.85,0,0,0-1.61,37.07c.45,10.22,4.22,19.88,8.16,29.35,6.16,14.78,15.26,27.57,26.16,39.17,2.4,2.56,2,5.46.66,8.17a21.29,21.29,0,0,1-3.89,5c-4.17,4.31-8.69,8.31-12.66,12.79-14.32,16.15-31.44,28.74-49.62,40.09-8.67,5.41-17.14,11.18-25.51,17-3.49,2.45-5.88,2.31-8.87-.87-15.29-16.28-33.9-27.27-55-34.36-12.62-4.24-25.57-3.81-38.55-3.88a84.86,84.86,0,0,0-30.26,5c-14.9,5.56-28.48,13.21-40.47,24a117,117,0,0,0-35.45,56.72,119.08,119.08,0,0,0-3.1,46.38c.7,5.87,2,11.53,3.19,17.25.8,3.84-1.77,5.64-4.67,6.48-9.94,2.9-19.9,5.74-30,8.12-11.67,2.77-23.43,5.21-35.21,7.45-9.3,1.78-18.56,3.81-28.16,3.76-4.93,0-6.89-1.87-8.06-6.48-5.54-21.83-15.67-41.36-31.42-57.52-16.64-17.08-36.88-28-60.24-33.17a105.11,105.11,0,0,0-24.81-2.77,117.76,117.76,0,0,0-44.8,10.38c-16.51,7.23-30,18.09-41.9,31.22-10.87,12-18.31,25.83-23.83,41-3.9,10.7-4.51,10.78-15.16,8a878.44,878.44,0,0,1-93.5-29.2c-1.51-.57-2.86-1.55-4.35-2.19-3.67-1.59-4.63-3.88-3.23-7.87,2.57-7.3,5.16-14.58,6.51-22.33a128.35,128.35,0,0,0,1-34.85,117.06,117.06,0,0,0-13.28-44.47c-7.22-13.45-17.84-24.19-29.33-34.19a106,106,0,0,0-38.18-21c-12.71-4-25.81-6.55-39.1-5.64-24.48,1.68-47.1,9-66.53,24.64-5.23,4.2-10.84,8-15.5,12.78-4.31,4.41-7.66,1.88-10.64-.63-13.67-11.54-25.61-24.79-37.5-38.15q-15.06-16.92-29.31-34.53a49.29,49.29,0,0,1-5.06-7.16c-1.43-2.62-1.1-5.07,1.17-7.56,10.71-11.73,20.4-24.18,26.85-38.87a117,117,0,0,0,10.36-43.84A111.5,111.5,0,0,0,155.64,1029c-13.35-24.37-32.69-41.86-58.41-52.77A133.05,133.05,0,0,0,54.8,966.15c-9.68-.75-18.86,1.89-28.36,1.46-3.45-.16-5.12-1.3-6-4.42C16.86,949.59,13,936,9.58,922.4c-1.62-6.41,0-8.18,6.26-9.95a117.16,117.16,0,0,0,46.29-25.06A121.84,121.84,0,0,0,93,846.24a113.55,113.55,0,0,0,9.65-33.49c3-24.27-1.79-46.74-13.16-68.07a118.31,118.31,0,0,0-36.13-41.31A115.34,115.34,0,0,0,2.12,682.51c-3.62-.53-4.06-2.79-3.62-5.62,1.67-10.61,3-21.3,5.26-31.79,2-9.47,3.38-19.12,6.67-28.34,5-14,6.85-28.87,11.89-42.88,3.65-10.12,4.15-10.39,14.53-8.28,23.6,4.8,46.66,3.23,69.06-6.18,17.34-7.28,32.53-17.65,44.82-31.83A116.87,116.87,0,0,0,178.5,469c4.91-30.09-1.09-58.05-17.2-83.68-6.12-9.74-14-18.3-22.64-26.06-2.55-2.31-2.34-3.73-.15-6.46,14.5-18,30.27-34.86,46.36-51.47,6.09-6.29,12.3-12.52,18.25-19,1.73-1.88,3-2.38,5.36-.48,10.62,8.65,21.8,16.46,34.53,21.79,11.91,5,24,9.24,37.19,8.88,7-.19,14-.27,21,0,17,.69,31.87-5.85,46.25-13.67a117.59,117.59,0,0,0,28.12-21.09C391.9,261,402,240.85,406.44,218a125.34,125.34,0,0,0-2.5-57.46c-1.21-4.46-.92-7.06,4-9.34,23-10.61,46.85-18.73,71.15-25.63,11.05-3.13,22.25-5.72,33.37-8.6,6.57-1.7,8.07-.47,10.08,5.88A121.18,121.18,0,0,0,546,165.66a118.84,118.84,0,0,0,41.08,31,116.38,116.38,0,0,0,35.43,9.9,119.67,119.67,0,0,0,54.61-5.91,100.63,100.63,0,0,0,33.95-20.52c13.75-12.29,26.17-25.83,33.64-43.2a173.43,173.43,0,0,0,7.71-23c1.7-6.19,2.79-7.43,9-6.46,10.43,1.64,20.82,3.6,31.2,5.53,21.36,4,42.31,9.66,63.2,15.5,6.71,1.87,8.52.85,7,10.59a123.06,123.06,0,0,0,23.77,94.68c9.44,12.47,21.4,22.09,35,29.6,11.23,6.2,23,11.28,35.75,13.49C964.78,278.21,972.27,277,979.68,277.43Zm-314.15,709c11.2,0,25.7.38,40-3a231.14,231.14,0,0,0,74.4-31.27c17.5-11.41,33.51-24.63,47.17-40.69a222.88,222.88,0,0,0,27.51-39.61,207.47,207.47,0,0,0,21-58.78c3.66-19.09,5.5-38.12,4.08-57.66a219.19,219.19,0,0,0-7.25-43.8,221.71,221.71,0,0,0-23.06-53.87,205.4,205.4,0,0,0-22.61-31.16c-6.3-7.09-12-14.9-19.06-21.15a225.89,225.89,0,0,0-92.44-49c-11.89-3.18-24-4.38-36.29-5.21-19.5-1.32-38.88-1.75-58,2.48-24.8,5.49-48.6,13.84-70.39,27.17-15.32,9.37-30,19.65-42.18,33-5,5.45-9.31,11.48-14.07,17.14a211.41,211.41,0,0,0-29.64,46.65,214.17,214.17,0,0,0-20,74.79c-1.46,18.74-.92,37.71,3,56.24,4.72,22.41,12.16,43.85,23.34,64,10,18,22.41,34.06,36.41,48.92,6.85,7.27,14.67,13.62,22.52,19.9,17.68,14.14,37.27,24.73,58.31,32.78a220.47,220.47,0,0,0,39.22,10.88C638.91,987.36,650.63,986.48,665.53,986.47Z" transform="translate(1.64 -12.43)"/><path class="b" d="M1844.48,1527.7c0,11.32-.19,20.66,0,30,.22,8.3-1.62,16.37-2,24.58-.16,3.24-2.4,2.13-3.94,2.18-11.36.37-22.27,2.22-32.84,6.86-14.06,6.18-24.58,16.18-33,28.6a65.08,65.08,0,0,0-11.19,42.87c1.44,16.86,7.19,32.09,19.78,44,4.56,4.32,8.63,9.11,13.68,13,2.87,2.21,2,6.09.54,9.12-6.1,12.46-13.71,24-21.57,35.43a115.17,115.17,0,0,1-9.38,12.56c-3.36,3.69-7.18,3.42-10.69,1.24-23.73-14.73-60.36-12.35-82.1,5.16-14.47,11.66-23.85,25.86-27.19,44a75.79,75.79,0,0,0,6.17,47c2.79,5.91,2.33,8.16-3.35,11.74a425.38,425.38,0,0,1-59.84,30.91c-4.56,1.95-6.58-.81-8.54-4.2-8.42-14.55-19.58-26.56-34.88-33.74-24.1-11.29-48.09-9.94-70.31,4.65-18.85,12.38-30.72,30-33.45,53-.19,1.61-.84,3.17-.94,4.78-.44,7.35-1.15,7.85-8.44,8.17-12.13.52-24.2-.68-36.28-1.2-6.69-.29-13.35-1.68-20.09-1.83-3.21-.07-3.34-2.09-3.22-4.41.5-9.61-.49-19-4-28-10.61-27.24-30.07-44.48-58.93-49.38-28.25-4.8-50.79,6.42-68.78,28a75.48,75.48,0,0,0-5.39,6.41c-2.18,3.25-5.16,3-8.26,1.34a442.89,442.89,0,0,1-42-25.81c-3.77-2.57-7.44-5.31-11.08-8.06-2.53-1.91-3.08-4.16-1.92-7.37,2.49-6.9,6.1-13.26,8.72-20.12,6.83-17.93,6.38-35.51-1.19-52.92-9-20.71-25.4-33.52-45.93-41.62-5.13-2-10.6-1.69-16-2.09-15.64-1.16-30.4,1.27-44.16,9.06-3.65,2.07-5.87,1.14-8.17-2.79a603.79,603.79,0,0,1-27.81-53.87c-2.53-5.51-1.56-8.56,4.11-12.34,15-10,25.56-23.11,31-40.46,7.85-24.78,3-47-12.55-67.27-13.37-17.35-31.7-25.64-53-28.15-2.2-.27-2.48-1-2.79-3-1.6-10.22-1.07-20.39,0-30.6.26-2.43,1.33-2.54,3.17-2.55,23.9-.08,43-10.58,58.35-28.07,8.9-10.1,13.69-22.24,15.73-35.7,2.69-17.69-.64-34.12-10.56-48.62a87.59,87.59,0,0,0-29.22-26.9c-4.45-2.52-5.83-6.36-3.87-10.63,8.29-18.08,16.67-36.13,27.48-52.91,3.42-5.32,9.44-6.83,15.09-4.15,7.75,3.67,16.06,4.91,24.49,6.12,12.94,1.87,24.94-.79,36.69-5.78,11.08-4.72,20-12.07,27.49-21.51a72.43,72.43,0,0,0,16.06-45.71c0-10.42-2.79-20.6-7.31-30.16-1.31-2.79-2.37-5.83-3.88-8.38-3.09-5.25-.67-7.42,3.38-10.25,14.44-10.08,29.44-19.24,44.58-28.2,2.85-1.68,5-1.31,7.35,1.19,9.7,10.36,19.74,20.41,33.07,26.16,25.86,11.16,50.36,8.64,73.08-8.13,16.25-12,25.55-28.52,29.69-48a47.2,47.2,0,0,0,1.09-12.75c-.34-5.11,2.48-6.26,6.43-6.53,15.68-1,31.35-2.2,47.09-2.11,6.85,0,13.61-1.37,20.62-.17,3.39.59,4.39,2,4.93,4.54,1.57,7.47,2.61,15.09,5.34,22.26,9.14,24,26,40.15,50.68,47.28,22.46,6.5,43.1,1.37,61.87-12.14,9.67-7,16.72-16.22,22.85-26.2,1.8-2.93,3.88-3.07,6.16-2,16.93,7.68,33.73,15.65,49.53,25.49,8.84,5.52,9.51,7.72,6.07,18.12-2.75,8.3-4.7,16.76-4.36,25.47,1.41,36,24.18,63.4,59,71.25,16.56,3.73,32.86,1.1,48.32-6.46,8.31-4.06,8.55-3.72,14.13,3.75,11.13,14.9,20.65,30.83,30,46.9,2.34,4,1.6,6.44-2.35,9.1-17.07,11.53-29.48,26.71-34.7,47-4.85,18.85-1.36,36.51,8.25,53.17a71.59,71.59,0,0,0,28.87,27.47,70.12,70.12,0,0,0,27.35,8.34c6.37.53,12.71,1.41,19.08,1.93,2.44.2,1.74,1.8,2,3.17C1845.57,1494.88,1844.13,1512.32,1844.48,1527.7Zm-420.2,136.74a110.65,110.65,0,0,0,29.48-2.7,137.61,137.61,0,0,0,40-16.32c21.79-13.15,38.89-30.8,50.75-53.37a136.23,136.23,0,0,0,15.22-51.63c1.31-14.17.68-28.11-2.83-41.54-6.77-25.91-18.87-49.07-39-67.61a155.77,155.77,0,0,0-35.74-24.75c-12.42-6.26-25.31-10.6-39.62-11.37s-28.95-2.87-42.79-.22c-30.54,5.83-56.46,21-77.63,44.21-12.82,14-21.17,30.5-27.61,48-6.9,18.75-7.49,38.18-5.19,57.91,2.06,17.7,6.44,34.49,15.86,49.8,9.89,16.09,21.48,30.9,36.64,42.17C1366.21,1655.15,1393.5,1665.44,1424.28,1664.44Z" transform="translate(1.64 -12.43)"/><path class="c" d="M1247.45,90.77c1.14-8-1.38-15.35-4.64-22.37-1.8-3.87-1.63-6.09,2.4-8.39,7.92-4.53,15.57-9.56,23.21-14.57,3.18-2.08,5.19-1.64,7.85,1.16,7,7.44,14.89,13.76,25.17,16.41,25.31,6.49,52.78-9,57.09-36.12.17-1.12.78-2.17.91-3.29,1.23-10,1.24-9.56,11.07-10.24,10.61-.74,21.2-.78,31.81-.93,3.3,0,4.78.5,5.32,4.48,2.87,21.25,17.11,38.06,38.82,41.63,18.78,3.09,33.24-3.74,44.74-18.23,1.64-2.07,3.63-3.86,5.28-5.92,1.19-1.47,2.17-.8,3.37-.16,9.51,5.1,19,10.22,28.56,15.21,4.16,2.17,5,5.66,3.74,9.61-5.23,16.55-2.89,31.58,8.24,45.15,6.95,8.48,15.87,13.23,26.5,15.31a49.18,49.18,0,0,0,29.8-3.2c2.83-1.23,4.73-.9,6.48,1.37,6.88,8.94,13.43,18.09,18.51,28.22.77,1.52.33,2.17-.42,3.42-3.66,6-9.56,10-13.84,15.49-10.52,13.54-10.46,34.86-2.5,48.36,8.33,14.14,20.88,22.1,37.56,23.38,9.71.74,11,2.48,11,12.29,0,12,.09,24,0,36a128.17,128.17,0,0,1-1,14.78c-.4,3-2.43,4.85-5.8,4.89-20.72.23-38.64,16.63-42.47,35.31-3,14.64-1.13,29.3,10.8,40.68,2.73,2.61,5.07,5.63,7.54,8.51,1.62,1.89,1.41,3.82.12,5.88-5.57,8.83-11.14,17.66-16.57,26.58-1.81,3-3.5,3.24-6.61,1.58a48.82,48.82,0,0,0-39.09-3.44c-14.64,4.75-30.14,22.8-29.88,40.77.11,7.76,0,15.38,3.67,22.64,1.44,2.88.53,5.78-3.08,7.75-9.89,5.41-19.74,10.87-30,15.52-5.06,2.3-7.46,1.82-10.49-2.69-10.52-15.62-25.15-23.45-43.94-22-13.62,1.07-25,7.15-33,18.61-4.83,6.89-8.36,14.3-9.16,22.86-.27,3-1.58,4.73-5.38,4.53-8-.43-16-.13-24-.13-8.49,0-10.41-1.65-11.52-9.81-2.84-20.65-14.39-34.35-34.3-39.64-15.74-4.18-30.62-1.08-42.7,10.94l-4.6,4.59c-6.32,6.32-6.39,6.45-13.87,1.72-8.69-5.49-17.19-11.27-25.83-16.83-2.33-1.5-2.83-3-1.57-5.62,4.17-8.7,8.35-17.57,7.79-27.5-1.27-22.56-18-41.62-40.59-44.1-10.12-1.11-18.94,1.93-28,4.71-2.32.71-3.67.21-4.62-1.38-6-9.95-12-19.85-16.72-30.48-2.34-5.24,1.87-7.55,4.38-10.26,5.26-5.69,11-10.91,14.09-18.26,6.88-16.32,5.52-31.68-5-46.16-7.77-10.73-19.08-15.53-31.23-18.8-3.11-.84-4.31-1.83-4.31-5.16,0-13.54-.05-13.31,13.18-17.08,23.76-6.78,36.76-25.75,34.77-49.78-1.31-15.94-10.12-27.74-23.56-35.87-3.72-2.25-3.81-3.81-1.92-7.2,5.74-10.28,10.11-21.27,16.52-31.23,1.87-2.91,3.43-3.18,6.32-2.22,7,2.31,13.82,4.74,21.47,4.55a41,41,0,0,0,28.65-12c6.74-6.55,13.31-13.11,15.17-23C1247.7,98,1247,94.35,1247.45,90.77Zm64,179.35c.39,48.27,36.87,82.2,80.48,84.15,50.58,2.25,85.53-37.3,87.62-79.61,2.47-50-39.5-87.82-83.09-88.26C1349.22,185.93,1310.57,225.73,1311.48,270.12Z" transform="translate(1.64 -12.43)"/></svg>
