<svg height="35px" width="35px" id="Layer_2" data-name="Layer 2" xmlns="http://www.w3.org/2000/svg" viewBox="0 0 167.72 115.41"><defs><style>.cls-1{fill:#009cd7;}.cls-2{fill:#bcbec0;}.cls-3{fill:none;}</style></defs><title>FIRSTRobotics_IconVert_OneColor</title><path class="cls-1" d="M22.25,73.47h9.29c3.21,0,6.38,1.46,6.38,5.13a4.7,4.7,0,0,1-2.86,4.57v0c1.94.46,2.5,2.63,2.65,4.36.06.77.13,3.45.77,4.11h-4.7a8.68,8.68,0,0,1-.53-2.91c-.13-1.83-.44-3.72-2.66-3.72H27v6.63H22.25ZM27,81.38h4a2,2,0,0,0,2.19-2.14c0-1.35-1.07-2-2.4-2H27Z" transform="translate(-0.67)"/><path class="cls-1" d="M47.43,73.09c5.75,0,9,4.21,9,9.49s-3.24,9.5-9,9.5-9-4.21-9-9.5S41.69,73.09,47.43,73.09Zm0,14.9c3.06,0,4.24-2.7,4.24-5.41s-1.18-5.41-4.24-5.41-4.23,2.71-4.23,5.41S44.37,88,47.43,88Z" transform="translate(-0.67)"/><path class="cls-1" d="M57.46,73.47H66c3.14,0,6.59.77,6.59,4.57a4.11,4.11,0,0,1-2.4,3.68A4.31,4.31,0,0,1,73.31,86c0,4.34-3.19,5.66-7.1,5.66H57.46Zm4.75,7.17h3.67a1.76,1.76,0,0,0,1.94-1.73c0-1.33-.94-1.76-1.94-1.76H62.21Zm0,7.25H66c1.5,0,2.55-.54,2.55-2S67.44,83.7,66,83.7h-3.8Z" transform="translate(-0.67)"/><path class="cls-1" d="M82.65,73.09c5.74,0,9,4.21,9,9.49s-3.24,9.5-9,9.5-9-4.21-9-9.5S76.9,73.09,82.65,73.09Zm0,14.9c3.06,0,4.23-2.7,4.23-5.41s-1.17-5.41-4.23-5.41-4.24,2.71-4.24,5.41S79.58,88,82.65,88Z" transform="translate(-0.67)"/><path class="cls-1" d="M107.12,77.56h-5.44V91.69H96.93V77.56H91.5V73.47h15.62Z" transform="translate(-0.67)"/><path class="cls-1" d="M108.18,73.64h4.74V91.86h-4.74Z" transform="translate(-0.67)"/><path class="cls-1" d="M126.28,80c-.26-1.84-1.69-2.81-3.68-2.81-3.06,0-4.23,2.71-4.23,5.41S119.54,88,122.6,88a3.38,3.38,0,0,0,3.68-3.37H131c-.26,4.7-3.7,7.46-8.32,7.46-5.52,0-9.09-4.21-9.09-9.5s3.57-9.49,9.09-9.49c3.93,0,8.19,2.5,8.32,6.89Z" transform="translate(-0.67)"/><path class="cls-1" d="M135.72,85.57c.1,2.14,1.43,2.83,3.44,2.83,1.43,0,2.91-.51,2.91-1.86,0-1.61-2.6-1.92-5.23-2.66s-5.33-1.91-5.33-5.25c0-4,4-5.54,7.42-5.54,3.63,0,7.28,1.76,7.3,5.87h-4.74c.07-1.66-1.48-2.2-2.94-2.2-1,0-2.29.36-2.29,1.56,0,1.4,2.62,1.66,5.28,2.4s5.28,2,5.28,5.26c0,4.62-3.93,6.1-7.94,6.1-4.18,0-7.88-1.84-7.91-6.51Z" transform="translate(-0.67)"/><path class="cls-1" d="M13.33,103.31c-.26-1.84-1.68-2.81-3.68-2.81-3.06,0-4.23,2.71-4.23,5.41s1.17,5.41,4.23,5.41A3.38,3.38,0,0,0,13.33,108h4.75c-.26,4.7-3.7,7.46-8.32,7.46-5.52,0-9.09-4.21-9.09-9.5s3.57-9.49,9.09-9.49c3.93,0,8.19,2.5,8.32,6.89Z" transform="translate(-0.67)"/><path class="cls-1" d="M27.36,96.42c5.75,0,9,4.21,9,9.49s-3.24,9.5-9,9.5-9-4.21-9-9.5S21.62,96.42,27.36,96.42Zm0,14.9c3.07,0,4.24-2.7,4.24-5.41s-1.17-5.41-4.24-5.41-4.23,2.71-4.23,5.41S24.3,111.32,27.36,111.32Z" transform="translate(-0.67)"/><path class="cls-1" d="M37.41,96.8h7L47.55,109h.05L50.74,96.8h7V115H53.27V101.19h-.06L49.39,115H45.76l-3.83-13.83h0V115H37.41Z" transform="translate(-0.67)"/><path class="cls-1" d="M58.49,96.8h8.65c3.39,0,6.58,1.56,6.58,5.87,0,4.52-2.57,6.28-6.58,6.28h-3.9V115H58.49Zm4.75,8.47h3.19c1.47,0,2.55-.61,2.55-2.27a2.24,2.24,0,0,0-2.55-2.4H63.24Z" transform="translate(-0.67)"/><path class="cls-1" d="M74.77,96.8H89.29v3.8H79.52v3.19h8.93v3.68H79.52v3.47h10V115H74.77Z" transform="translate(-0.67)"/><path class="cls-1" d="M105.66,100.88h-5.43V115H95.48V100.88H90V96.8h15.62Z" transform="translate(-0.67)"/><path class="cls-1" d="M106.39,96.8h4.74V115h-4.74Z" transform="translate(-0.67)"/><path class="cls-1" d="M127.51,100.88h-5.44V115h-4.75V100.88h-5.43V96.8h15.62Z" transform="translate(-0.67)"/><path class="cls-1" d="M128.4,96.8h4.74V115H128.4Z" transform="translate(-0.67)"/><path class="cls-1" d="M143.2,96.42c5.74,0,9,4.21,9,9.49s-3.24,9.5-9,9.5-9-4.21-9-9.5S137.45,96.42,143.2,96.42Zm0,14.9c3.06,0,4.23-2.7,4.23-5.41s-1.17-5.41-4.23-5.41-4.24,2.71-4.24,5.41S140.13,111.32,143.2,111.32Z" transform="translate(-0.67)"/><path class="cls-1" d="M152.67,96.8h4.88L163.88,108h.05V96.8h4.46V115h-4.87l-6.33-11.36h-.05V115h-4.47Z" transform="translate(-0.67)"/><path class="cls-2" d="M58.29,30.68l-.53,2.78,5.3-2.27A12.74,12.74,0,0,1,62.25,29Z" transform="translate(-0.67)"/><line class="cls-3" x1="57.62" y1="30.68" x2="57.62" y2="30.68"/><path class="cls-1" d="M122.33,20.54h0L100.88,0,93.66,7.55A35.33,35.33,0,0,0,82.43,5.47,28.47,28.47,0,0,0,68.17,9.55L58.11,0V0h0L54.5.38,46.73,42.91l3.62.38h0l16.39-7.17.07.07c3.9,3.44,9.76,5.63,16.3,5.63A26.65,26.65,0,0,0,95.32,39l6.58,6.32L122.33,24V20.55h0ZM82.26,6.28A35.78,35.78,0,0,1,93,8.2l-.13.13-3.19,3.32h0a20.85,20.85,0,0,0-6.6-1,19.27,19.27,0,0,0-10.64,3l0,0-3.34-3.17-.3-.28A26.57,26.57,0,0,1,82.26,6.28Zm4.49,8.47-6.23,6.49L75,16.05a20.35,20.35,0,0,1,8.07-1.62A21.43,21.43,0,0,1,86.75,14.75ZM50.51,42.38,58,.72,68.66,10.84,72,14l2.55,2.42,6.07,5.79v2.64l2.58,2.47L75.15,31a14.55,14.55,0,0,1-4.64-3,.6.6,0,0,1-.08-.08L76.61,25,62.08,11.45l-.29-.29L61.44,13,58,30.93l-.53,2.78.91-.39v0l4.67-2a15.06,15.06,0,0,0,3.08,4.25Zm34-13.79L88,31.93a21,21,0,0,1-5,.6,20.41,20.41,0,0,1-6.14-.91l-.76-.26,7.71-3.47Zm-15.37-2.3a1.77,1.77,0,0,1-.12-.17,8.51,8.51,0,0,1-1.09-2.53c0-.09,0-.18,0-.27A8.92,8.92,0,0,1,69,20.83l4,4Zm-7.78-2s0,.05,0,.08a2.46,2.46,0,0,0,0,.26,26.6,26.6,0,0,0,.88,4.42h0l-3.33,1.42L62.1,14l1.3,1.29a12.84,12.84,0,0,0-2.2,7.1A12.51,12.51,0,0,0,61.37,24.33ZM94.85,35.07a23.75,23.75,0,0,1-2.46,1.08A27.17,27.17,0,0,1,83,37.78a26,26,0,0,1-12.84-3.22A18.25,18.25,0,0,1,65,30.35a14,14,0,0,1-1.35-1.92,12.33,12.33,0,0,1-1.55-4.22A11,11,0,0,1,62,22.35a12,12,0,0,1,1.91-6.44l3.41,3.46A8.52,8.52,0,0,0,67,21.76a8.78,8.78,0,0,0,.24,2,9.22,9.22,0,0,0,1.19,2.75,11.32,11.32,0,0,0,1.59,2,16.1,16.1,0,0,0,6.64,3.84A21.26,21.26,0,0,0,83,33.3a21.93,21.93,0,0,0,5.25-.63A20,20,0,0,0,91,31.76a15.64,15.64,0,0,0,5.11-3.37,9.94,9.94,0,0,0,2.65-4.62,8.2,8.2,0,0,0,.25-2,10.26,10.26,0,0,0-1.88-5.69l2.9-3a13.79,13.79,0,0,1,4,9.3,12.09,12.09,0,0,1-.16,1.86,13.58,13.58,0,0,1-4.2,7.54A19.92,19.92,0,0,1,94.85,35.07Zm.85-7.36-5.06-4.93,4.28-4.47a10.46,10.46,0,0,1,3.25,4.46,7.4,7.4,0,0,1-.15.82A9.3,9.3,0,0,1,95.7,27.71Zm8.91-3.54a12.72,12.72,0,0,0,.14-1.82,14.59,14.59,0,0,0-4.22-9.88l.69-.72L111.94,22l-8.87,9.25a19.15,19.15,0,0,0,1.55-6.84C104.62,24.37,104.61,24.27,104.61,24.17ZM101.9,41.81l-4.35-4.18a17.53,17.53,0,0,0,4.27-4.08l.05-.07,10.6-11,.31-.34,1.38-1.44L101.22,8.28l-2.91,3-3.2,3.35-2.19,2.27-4.12,4.3h0l-.35.37,1.2,1.15,5.57,5.44a15.07,15.07,0,0,1-4.52,2.87h0L87,27.52l-3.61-3.47L81,21.72l5.84-6.09,2.93-3.05,3.19-3.32,8-8.3,21,20.07Z" transform="translate(-0.67)"/><path class="cls-1" d="M47.19,48.19H61.76L60.39,53.8h-7l-.69,3H60L58.74,62h-7.2l-1.72,7.38H42.29Z" transform="translate(-0.67)"/><path class="cls-1" d="M63.75,48.19h7.52l-4.9,21.14H58.84Z" transform="translate(-0.67)"/><path class="cls-1" d="M73.24,48.32l.48-.07c2.42-.28,5.43-.47,7.08-.47a17.4,17.4,0,0,1,6.53,1,5.25,5.25,0,0,1,3.31,5,7.84,7.84,0,0,1-1.9,5.2,7.45,7.45,0,0,1-4,2.44l-.48.15a4.57,4.57,0,0,1,.38.32,49.35,49.35,0,0,1,3.83,7.48H80.15c-1.07-3-1.38-3.8-2.8-7.22l-1.66,7.22H68.37Zm5.56,10c2.42,0,4.11-1.43,4.11-3.45,0-1.08-.8-1.62-2.35-1.62a4.82,4.82,0,0,0-1.17.13l-1.14,4.88A3,3,0,0,0,78.8,58.27Z" transform="translate(-0.67)"/><path class="cls-1" d="M108.51,48.19h18.26l-1.27,6.12h-5.42l-3.59,15H109l3.59-15h-5.87Z" transform="translate(-0.67)"/><path class="cls-1" d="M120,65.56a1.83,1.83,0,1,1,0,3.66,1.83,1.83,0,0,1,0-3.66ZM120,69a1.61,1.61,0,1,0-1.6-1.61A1.61,1.61,0,0,0,120,69Zm-.71-2.55.29,0,.34,0c.61,0,.9.23.9.68a.51.51,0,0,1-.35.53h0s0,0,0,0a7.16,7.16,0,0,1,.45.67h-.69c-.14-.27-.18-.34-.36-.64v.64h-.59Zm.66.88c.16,0,.26-.08.26-.23s-.09-.22-.25-.22h-.08v.43Z" transform="translate(-0.67)"/><path class="cls-1" d="M89.17,68.8a24,24,0,0,0,6.6,1,11.59,11.59,0,0,0,7.11-2.06,7.88,7.88,0,0,0,3.52-6,4.68,4.68,0,0,0-1.73-3.65A15.68,15.68,0,0,0,101.08,56l-1.48-.7c-.48-.25-.73-.51-.73-.79,0-.76,1-1.33,2.28-1.33a15,15,0,0,1,4.39,1l1.54-5.72a18.83,18.83,0,0,0-4.93-.68c-6.14,0-10.87,3.36-10.87,7.7,0,2.28,1.52,3.9,5.31,5.67,1.8.83,2.11,1.05,2.11,1.62,0,.86-.93,1.4-2.45,1.4a16.92,16.92,0,0,1-5.42-1.27h0Z" transform="translate(-0.67)"/></svg>
