<svg height="35px" width="35px" id="Layer_2" data-name="Layer 2" xmlns="http://www.w3.org/2000/svg" viewBox="0 0 146.87 115.99"><defs><style>.cls-1{fill:#f57f27;}</style></defs><title>FIRSTTech_IconVert_OneColor</title><path class="cls-1" d="M47.2,30.68l-.53,2.78L52,31.19A12,12,0,0,1,51.16,29Z"/><line class="cls-1" x1="47.2" y1="30.68" x2="47.2" y2="30.68"/><path class="cls-1" d="M111.24,20.54h0L89.78,0,82.57,7.55A35.38,35.38,0,0,0,71.34,5.47,28.41,28.41,0,0,0,57.08,9.55L47,0V0h0L43.4.38,35.64,42.91l3.61.38h0l16.39-7.17.08.07c3.9,3.44,9.75,5.63,16.3,5.63A26.61,26.61,0,0,0,84.22,39l6.59,6.32L111.24,24V20.55ZM71.17,6.28A35.83,35.83,0,0,1,82,8.2l-.13.13-3.19,3.32h0a20.89,20.89,0,0,0-6.6-1,19.27,19.27,0,0,0-10.64,3l0,0L58,10.41l-.29-.28A26.51,26.51,0,0,1,71.17,6.28Zm4.49,8.47-6.24,6.5-5.48-5.2A20.4,20.4,0,0,1,72,14.43,21.62,21.62,0,0,1,75.66,14.75ZM39.41,42.38,46.89.72,57.57,10.84,60.91,14l2.56,2.42,6.06,5.79v2.64l2.58,2.47-8,3.67a14.44,14.44,0,0,1-4.64-3,.6.6,0,0,1-.08-.08L65.52,25,51,11.45l-.29-.29L50.35,13,46.91,30.93l-.53,2.78.91-.39v0l4.67-2a14.87,14.87,0,0,0,3.08,4.25Zm34-13.79,3.48,3.34a21,21,0,0,1-5,.6,20.46,20.46,0,0,1-6.14-.91L65,31.36l7.72-3.47Zm-15.37-2.3-.12-.17a8.51,8.51,0,0,1-1.09-2.53c0-.09,0-.18-.05-.27A9,9,0,0,1,58,20.83l4,4Zm-7.77-2s0,.05,0,.08a2.35,2.35,0,0,0,0,.26,25.62,25.62,0,0,0,.88,4.42h0l-3.33,1.42L51,14l1.3,1.29a12.76,12.76,0,0,0-2.2,7.1A11.43,11.43,0,0,0,50.28,24.33ZM83.76,35.07a23,23,0,0,1-2.47,1.08,27.13,27.13,0,0,1-9.41,1.63,25.94,25.94,0,0,1-12.83-3.22,18.45,18.45,0,0,1-5.12-4.21,15.93,15.93,0,0,1-1.35-1.92A12.33,12.33,0,0,1,51,24.21a12.2,12.2,0,0,1-.16-1.86,12,12,0,0,1,1.92-6.44l3.41,3.46a8.53,8.53,0,0,0-.35,2.39,8.28,8.28,0,0,0,.25,2,9.45,9.45,0,0,0,1.18,2.75,11.8,11.8,0,0,0,1.59,2,16.17,16.17,0,0,0,6.64,3.84,21.35,21.35,0,0,0,6.37.95,21.81,21.81,0,0,0,5.25-.63,19.54,19.54,0,0,0,2.77-.91A15.43,15.43,0,0,0,85,28.39a10,10,0,0,0,2.66-4.62,8.71,8.71,0,0,0,.25-2A10.34,10.34,0,0,0,86,16.07l2.9-3a13.82,13.82,0,0,1,4,9.3,11,11,0,0,1-.16,1.86,13.52,13.52,0,0,1-4.2,7.54A19.86,19.86,0,0,1,83.76,35.07Zm.84-7.36-5.06-4.93,4.29-4.47a10.54,10.54,0,0,1,3.25,4.46,7.43,7.43,0,0,1-.16.82A9.21,9.21,0,0,1,84.6,27.71Zm8.91-3.54a11.45,11.45,0,0,0,.15-1.82,14.64,14.64,0,0,0-4.22-9.88l.69-.72L100.85,22,92,31.29a18.94,18.94,0,0,0,1.55-6.84C93.52,24.37,93.52,24.27,93.51,24.17Zm-2.7,17.64-4.36-4.18a17.76,17.76,0,0,0,4.28-4.08.25.25,0,0,0,0-.07l10.6-11,.32-.34,1.38-1.44L90.13,8.28l-2.91,3L84,14.65l-2.18,2.27-4.12,4.3h0l-.36.37,1.2,1.15,5.58,5.44a15.07,15.07,0,0,1-4.52,2.87h0l-3.68-3.53-3.61-3.47-2.46-2.33,5.84-6.09,2.94-3.05,3.19-3.32,8-8.3,21,20.07Z"/><path class="cls-1" d="M52.21,78.1H46.77V92.25H42V78.1H36.58V74H52.21Z"/><path class="cls-1" d="M52.77,74H67.3v3.8H57.52V81h8.94v3.68H57.52v3.48h10v4.08H52.77Z"/><path class="cls-1" d="M80.84,80.53c-.26-1.84-1.69-2.81-3.68-2.81-3.06,0-4.24,2.71-4.24,5.41s1.18,5.42,4.24,5.42a3.39,3.39,0,0,0,3.68-3.37h4.75c-.26,4.7-3.7,7.46-8.33,7.46-5.51,0-9.09-4.22-9.09-9.51s3.58-9.5,9.09-9.5c3.94,0,8.2,2.51,8.33,6.9Z"/><path class="cls-1" d="M86.53,74h4.75v6.64h6.26V74h4.75V92.25H97.54V84.74H91.28v7.51H86.53Z"/><path class="cls-1" d="M12.67,103.88C12.41,102,11,101.07,9,101.07c-3.06,0-4.24,2.71-4.24,5.41S5.93,111.9,9,111.9a3.39,3.39,0,0,0,3.68-3.37h4.75c-.25,4.7-3.7,7.46-8.33,7.46C3.58,116,0,111.77,0,106.48S3.58,97,9.09,97c3.94,0,8.2,2.51,8.33,6.9Z"/><path class="cls-1" d="M18.36,97.36h4.75V104h6.26V97.36h4.75V115.6H29.37v-7.51H23.11v7.51H18.36Z"/><path class="cls-1" d="M40.76,97.36h4.83l6.82,18.24h-5l-1.12-3.27H40l-1.15,3.27H33.94Zm.31,11.45h4.14l-2-6.39h-.06Z"/><path class="cls-1" d="M52.25,97.36H57v14.16h8.51v4.08H52.25Z"/><path class="cls-1" d="M66.32,97.36h4.75v14.16h8.51v4.08H66.32Z"/><path class="cls-1" d="M80.39,97.36H94.93v3.81H85.14v3.19h8.94V108H85.14v3.48h10v4.08H80.39Z"/><path class="cls-1" d="M96.3,97.36h4.88l6.34,11.24h0V97.36H112V115.6h-4.88l-6.34-11.36h0V115.6H96.3Z"/><path class="cls-1" d="M130.58,115.6h-3.07l-.28-2a6.23,6.23,0,0,1-5.08,2.38c-5.52,0-9.1-4.22-9.1-9.51s3.58-9.5,9.1-9.5c3.78,0,7.81,2,8.25,6.59h-4.75c-.16-1.56-1.69-2.5-3.6-2.5-3.07,0-4.24,2.71-4.24,5.41s1.17,5.42,4.24,5.42c2.35,0,3.93-1.1,4.19-2.76h-3.33v-3.53h7.67Z"/><path class="cls-1" d="M132.08,97.36h14.54v3.81h-9.79v3.19h8.94V108h-8.94v3.48h10v4.08H132.08Z"/><path class="cls-1" d="M36.05,48.12H50.64l-1.38,5.62h-7l-.69,2.95h7.3L47.61,61.9h-7.2l-1.73,7.39H31.14Z"/><path class="cls-1" d="M52.62,48.12h7.54L55.25,69.29H47.71Z"/><path class="cls-1" d="M62.13,48.25l.48-.06a70.29,70.29,0,0,1,7.09-.48,17.56,17.56,0,0,1,6.53,1,5.25,5.25,0,0,1,3.32,5,7.84,7.84,0,0,1-1.9,5.2,7.37,7.37,0,0,1-4,2.44l-.49.16a4.57,4.57,0,0,1,.38.32,50.34,50.34,0,0,1,3.84,7.49H69c-1.07-3-1.38-3.81-2.8-7.24l-1.66,7.24H57.26Zm5.57,10c2.42,0,4.11-1.42,4.11-3.45,0-1.08-.8-1.62-2.35-1.62a5.5,5.5,0,0,0-1.18.12l-1.14,4.89A3.1,3.1,0,0,0,67.7,58.21Z"/><path class="cls-1" d="M97.44,48.12h18.29l-1.28,6.13H109l-3.6,15H97.89l3.6-15H95.61Z"/><path class="cls-1" d="M109,65.51a1.84,1.84,0,1,1,0,3.67,1.84,1.84,0,1,1,0-3.67ZM109,69a1.61,1.61,0,1,0-1.61-1.62A1.61,1.61,0,0,0,109,69Zm-.71-2.56.29,0,.34,0c.6,0,.9.24.9.69a.49.49,0,0,1-.35.52h0l0,0a5.28,5.28,0,0,1,.46.67h-.69c-.14-.26-.19-.33-.36-.63v.63h-.59Zm.66.89c.16,0,.25-.08.25-.23s-.08-.22-.25-.22h-.07v.44Z"/><path class="cls-1" d="M78.08,68.75a23.72,23.72,0,0,0,6.6,1,11.54,11.54,0,0,0,7.12-2.07,7.85,7.85,0,0,0,3.53-6A4.7,4.7,0,0,0,93.6,58,16.46,16.46,0,0,0,90,55.93l-1.49-.7c-.48-.25-.73-.51-.73-.79,0-.76,1-1.34,2.29-1.34a15.13,15.13,0,0,1,4.39,1L96,48.39a18.83,18.83,0,0,0-4.93-.68c-6.15,0-10.89,3.36-10.89,7.71,0,2.29,1.52,3.91,5.32,5.68,1.8.83,2.11,1,2.11,1.62,0,.86-.93,1.4-2.45,1.4a16.7,16.7,0,0,1-5.43-1.27h0Z"/></svg>
