<?xml version="1.0" standalone="no"?>
<!DOCTYPE svg PUBLIC "-//W3C//DTD SVG 20010904//EN"
 "http://www.w3.org/TR/2001/REC-SVG-20010904/DTD/svg10.dtd">
<svg version="1.0" xmlns="http://www.w3.org/2000/svg"
 width="753.000000pt" height="753.000000pt" viewBox="0 0 753.000000 753.000000"
 preserveAspectRatio="xMidYMid meet">
<metadata>
Created by potrace 1.11, written by Peter Selinger 2001-2013
</metadata>
<g transform="translate(0.000000,753.000000) scale(0.100000,-0.100000)"
fill="#000000" stroke="none">
<path d="M0 3765 l0 -3765 3765 0 3765 0 0 3765 0 3765 -3765 0 -3765 0 0
-3765z m4052 3575 c3 -30 14 -93 23 -140 9 -47 21 -110 25 -140 5 -30 16 -95
25 -145 17 -93 27 -153 44 -267 6 -37 15 -77 21 -88 16 -29 63 -50 114 -50 25
0 47 -4 50 -9 3 -4 28 -11 56 -15 28 -4 61 -11 73 -15 12 -5 42 -14 67 -21 77
-21 145 -44 155 -52 5 -4 26 -8 46 -8 35 0 42 6 161 147 67 81 145 174 172
207 28 34 55 67 62 74 7 7 30 34 51 60 21 26 50 60 66 77 15 16 37 45 50 62
12 18 25 33 30 33 4 0 25 -11 47 -25 22 -14 44 -25 50 -25 5 0 10 -4 10 -9 0
-5 8 -12 18 -15 24 -9 92 -47 127 -72 17 -11 37 -24 45 -27 8 -4 24 -13 35
-19 76 -49 127 -78 135 -78 12 0 13 -15 1 -38 -11 -21 -32 -74 -66 -172 -15
-41 -30 -84 -35 -95 -5 -11 -20 -53 -34 -92 -14 -40 -37 -103 -51 -141 -14
-37 -25 -72 -25 -78 0 -10 -21 -59 -41 -96 -5 -10 -9 -27 -9 -37 0 -11 -4 -23
-10 -26 -5 -3 -10 -17 -10 -30 0 -30 411 -445 441 -445 11 0 27 4 37 9 9 4 37
15 62 24 82 28 115 40 145 52 17 7 48 18 70 25 48 16 104 37 127 50 10 6 26
10 36 10 10 0 22 4 28 8 5 4 34 16 64 26 30 11 59 23 64 27 6 5 18 9 28 9 16
0 66 19 110 41 23 12 38 11 38 -1 0 -5 16 -34 35 -64 19 -30 35 -57 35 -60 0
-2 26 -48 58 -103 137 -230 143 -241 123 -255 -10 -7 -45 -37 -79 -66 -33 -29
-78 -66 -99 -81 -21 -16 -54 -44 -73 -62 -19 -19 -44 -41 -56 -49 -11 -8 -50
-41 -86 -72 -35 -32 -82 -70 -104 -87 -21 -16 -59 -47 -84 -70 -25 -22 -48
-41 -52 -41 -16 0 -7 -77 16 -140 13 -36 28 -81 33 -100 27 -93 34 -120 48
-178 8 -35 15 -75 15 -90 0 -44 22 -90 49 -102 14 -7 53 -16 86 -21 67 -10
129 -20 260 -44 50 -9 117 -20 150 -25 33 -5 96 -16 140 -25 44 -9 107 -20
140 -23 l60 -7 0 -280 0 -280 -55 -3 c-30 -1 -62 -6 -70 -9 -18 -8 -132 -31
-215 -43 -33 -5 -100 -16 -150 -25 -49 -9 -117 -21 -150 -25 -122 -18 -180
-29 -200 -40 -24 -13 -45 -62 -45 -102 0 -25 -19 -113 -39 -183 -4 -16 -14
-50 -21 -75 -6 -25 -23 -74 -36 -110 -23 -63 -32 -140 -16 -140 4 0 27 -19 52
-41 25 -23 63 -54 84 -70 22 -17 69 -55 104 -87 36 -31 75 -64 86 -72 12 -8
37 -30 56 -49 19 -18 52 -46 73 -62 21 -15 66 -52 99 -81 34 -29 69 -59 79
-66 20 -14 14 -25 -123 -255 -32 -55 -58 -101 -58 -103 0 -3 -16 -30 -35 -60
-19 -30 -35 -59 -35 -64 0 -12 -15 -13 -38 -1 -44 22 -94 41 -110 41 -10 0
-22 4 -28 9 -5 4 -34 16 -64 27 -30 10 -59 22 -64 26 -6 4 -18 8 -28 8 -10 0
-26 4 -36 10 -23 13 -79 34 -127 50 -22 7 -53 18 -70 25 -30 12 -63 24 -145
52 -25 9 -53 20 -62 24 -10 5 -26 9 -37 9 -30 0 -441 -415 -441 -445 0 -13 5
-27 10 -30 6 -3 10 -15 10 -26 0 -10 4 -27 9 -37 20 -37 41 -86 41 -96 0 -6
11 -41 25 -78 14 -38 37 -101 51 -141 14 -39 29 -81 34 -92 5 -11 20 -54 35
-95 34 -98 55 -151 66 -172 12 -23 11 -38 -1 -38 -5 0 -33 -15 -62 -33 -29
-19 -60 -37 -68 -40 -16 -7 -38 -21 -85 -52 -38 -25 -105 -63 -127 -71 -10 -3
-18 -10 -18 -15 0 -5 -5 -9 -10 -9 -6 0 -28 -11 -50 -25 -22 -14 -43 -25 -47
-25 -5 0 -18 15 -30 33 -13 17 -35 46 -50 62 -16 17 -45 51 -66 77 -21 26 -44
53 -51 60 -7 7 -34 40 -62 74 -27 33 -105 126 -172 207 -119 141 -126 147
-161 147 -20 0 -41 -4 -47 -8 -9 -8 -77 -31 -154 -52 -25 -7 -55 -16 -67 -21
-12 -4 -45 -11 -73 -15 -28 -4 -53 -11 -56 -15 -3 -5 -25 -9 -50 -9 -51 0 -98
-21 -114 -50 -6 -11 -15 -51 -21 -88 -17 -114 -27 -174 -44 -267 -9 -49 -20
-115 -25 -145 -4 -30 -16 -93 -25 -140 -9 -47 -20 -110 -23 -140 l-7 -55 -280
0 -280 0 -3 50 c-1 28 -6 59 -11 70 -9 21 -27 115 -42 220 -20 143 -29 196
-34 205 -3 5 -10 40 -16 77 -25 168 -28 189 -35 211 -8 26 -52 48 -114 56 -44
5 -124 23 -205 46 -22 6 -56 15 -75 20 -44 11 -108 34 -116 43 -10 9 -104 9
-104 0 0 -5 -19 -28 -41 -53 -23 -25 -53 -61 -68 -80 -32 -43 -58 -74 -91
-109 -14 -14 -45 -51 -70 -81 -25 -30 -53 -64 -64 -75 -10 -11 -30 -36 -45
-55 -25 -34 -40 -52 -89 -108 -13 -15 -35 -41 -49 -59 l-25 -32 -39 24 c-21
14 -41 25 -44 25 -2 0 -28 15 -57 33 -29 19 -60 37 -68 40 -8 4 -28 15 -45 25
-16 10 -55 31 -85 47 -30 16 -69 40 -86 52 -17 13 -36 23 -42 23 -16 0 -16 5
14 85 26 72 33 89 54 140 7 17 20 55 30 85 10 30 23 69 30 85 23 55 28 70 46
120 9 28 21 54 26 60 4 5 8 17 8 26 0 9 7 30 15 45 8 16 15 36 15 45 0 9 3 19
7 23 12 11 33 80 33 107 0 18 -9 32 -27 44 -16 10 -110 101 -210 201 -139 140
-188 184 -207 184 -14 0 -28 -4 -31 -10 -3 -5 -16 -10 -29 -10 -12 0 -26 -4
-32 -9 -5 -4 -34 -16 -64 -26 -30 -10 -68 -24 -85 -30 -16 -7 -48 -18 -70 -25
-22 -7 -64 -24 -93 -37 -29 -12 -59 -23 -67 -23 -9 0 -23 -4 -33 -9 -9 -5 -37
-17 -62 -26 -25 -9 -53 -21 -62 -26 -10 -5 -24 -9 -33 -9 -13 0 -65 -20 -107
-41 -23 -12 -38 -11 -38 0 0 5 -23 46 -50 90 -28 44 -50 83 -50 86 0 3 -11 24
-26 46 -14 22 -33 55 -43 72 -29 52 -81 141 -94 161 -9 15 -9 20 1 23 7 3 18
10 25 17 6 6 44 37 82 69 95 78 146 122 170 144 11 10 29 25 41 33 11 8 50 40
85 72 35 31 78 67 94 79 17 13 35 28 41 34 7 5 35 30 63 54 44 38 51 48 51 80
0 20 -4 41 -8 46 -7 9 -19 45 -52 155 -35 117 -60 228 -60 265 0 19 -5 37 -10
40 -6 3 -10 14 -10 24 0 23 -40 40 -122 52 -88 14 -159 26 -258 44 -47 9 -112
20 -145 25 -33 5 -96 16 -140 25 -44 9 -107 19 -140 23 l-60 7 0 280 0 280 60
7 c33 4 96 14 140 23 44 9 107 20 140 25 33 5 98 16 145 25 99 18 170 30 258
44 82 12 122 29 122 52 0 10 5 21 10 24 6 3 10 21 10 40 0 37 25 148 60 265
33 110 45 146 52 154 4 6 8 27 8 47 0 32 -7 42 -51 80 -28 24 -56 49 -63 54
-6 6 -24 21 -41 34 -16 12 -59 48 -94 79 -35 32 -74 64 -85 72 -12 8 -30 23
-41 33 -24 22 -75 66 -170 144 -38 32 -76 63 -82 69 -7 7 -18 14 -25 17 -10 3
-10 8 -1 23 13 20 65 109 94 161 10 17 29 50 43 72 15 22 26 43 26 46 0 3 23
42 50 86 28 44 50 85 50 90 0 11 15 12 38 0 42 -21 94 -41 107 -41 9 0 23 -4
33 -9 9 -5 37 -17 62 -26 25 -9 53 -21 62 -26 10 -5 24 -9 33 -9 8 0 38 -11
67 -23 29 -13 71 -30 93 -37 22 -7 54 -18 70 -25 17 -6 55 -20 85 -30 30 -10
59 -22 65 -26 5 -5 19 -9 31 -9 13 0 26 -4 29 -10 3 -5 21 -10 38 -10 26 0 39
8 67 45 41 53 309 317 345 341 16 11 25 25 25 43 0 27 -21 96 -33 107 -4 4 -7
14 -7 23 0 9 -7 29 -15 45 -8 15 -15 36 -15 45 0 9 -4 21 -8 27 -5 5 -17 32
-26 59 -18 50 -23 65 -46 120 -7 17 -20 55 -30 85 -10 30 -23 69 -30 85 -21
51 -28 68 -54 140 -30 80 -30 85 -14 85 6 0 25 10 42 23 17 12 56 36 86 52 30
16 69 37 85 47 17 10 37 21 45 25 8 3 39 21 68 40 29 18 55 33 57 33 3 0 23
11 44 25 l39 24 25 -32 c14 -18 36 -44 49 -59 49 -56 64 -74 89 -108 15 -19
35 -44 45 -55 11 -11 39 -45 64 -75 25 -30 56 -67 70 -81 33 -35 59 -66 91
-109 15 -19 45 -55 68 -80 22 -25 41 -48 41 -52 0 -10 94 -10 104 -1 8 9 72
32 116 43 19 5 53 14 75 20 81 23 161 41 205 46 62 8 106 30 114 56 7 22 10
43 35 211 6 37 13 72 16 77 3 5 10 40 16 77 39 263 53 340 62 349 4 4 7 31 7
59 0 28 3 55 7 58 4 4 131 6 282 5 l276 -3 7 -55z"/>
<path d="M2920 5045 l0 -1225 235 0 235 0 0 460 0 460 104 0 105 0 316 -460
317 -460 269 0 c313 0 299 -7 221 106 -27 38 -96 137 -153 219 -58 83 -174
249 -258 370 -85 121 -162 231 -172 244 -32 40 -24 54 49 84 203 83 395 309
438 517 21 97 13 266 -16 368 -68 241 -267 438 -519 513 -74 23 -88 23 -623
27 l-548 3 0 -1226z m1060 764 c98 -46 159 -127 181 -237 26 -134 -27 -267
-134 -339 -78 -52 -101 -56 -379 -60 l-258 -4 0 338 0 338 267 -5 c262 -5 269
-6 323 -31z"/>
<path d="M2770 2475 l0 -1225 235 0 235 0 0 510 0 510 510 0 510 0 0 -510 0
-510 235 0 235 0 0 1225 0 1225 -235 0 -235 0 0 -490 0 -490 -510 0 -510 0 0
490 0 490 -235 0 -235 0 0 -1225z"/>
</g>
</svg>
