<?xml version="1.0" encoding="utf-8"?>
<!-- Generator: Adobe Illustrator 23.0.3, SVG Export Plug-In . SVG Version: 6.00 Build 0)  -->
<svg version="1.1" xmlns="http://www.w3.org/2000/svg" xmlns:xlink="http://www.w3.org/1999/xlink" x="0px" y="0px"
	 viewBox="0 0 310.05 191.34" style="enable-background:new 0 0 310.05 191.34;" xml:space="preserve">
<style type="text/css">
	.st0{fill:#FCFCFC;}
	.st1{fill:#0267B3;}
	.st2{fill:#ED1E28;}
	.st3{fill:#F27F26;}
	.st4{fill:#EA212B;}
	.st5{opacity:0.9;fill:#FFFFFF;}
</style>
<g id="Layer_1">
	<g>
		<path class="st0" d="M160.49,191.26c-52.48,0-104.96-0.03-157.44,0.08c-2.61,0.01-3.05-0.58-3.05-3.1
			C0.09,126.51,0.09,64.78,0,3.06c0-2.46,0.35-3.13,3.02-3.12c104.96,0.09,209.92,0.09,314.88,0c2.77,0,3.24,0.64,3.23,3.29
			c-0.09,61.6-0.09,123.2-0.01,184.81c0,2.58-0.37,3.32-3.2,3.32C265.45,191.23,212.97,191.26,160.49,191.26z M120.03,150.02
			c0.36-1.83,0.69-3.67,1.09-5.49c9.09-41.46,54.46-63.15,92.02-50.21c23.81,8.2,39.31,25.31,49.43,47.76
			c6.18,13.72,9.28,28.17,9.26,43.23c-0.01,3.43,0.89,4.66,4.59,4.55c9.99-0.3,19.99-0.23,29.98-0.03c3.08,0.06,3.76-0.96,3.63-3.82
			c-0.48-10.38-1.74-20.65-4.03-30.77c-9.67-42.6-33.26-74.4-73.54-92.43c-32.31-14.46-64.84-14.99-96.67,1.83
			c-29.14,15.4-43.63,43.52-38.09,73.71c2.85,15.58,10.77,28.32,23.15,38.23c0.75,0.6,1.59,1.73,2.57,1.09
			c1.1-0.71,0.16-1.78-0.23-2.64c-1.67-3.67-2.21-7.65-3.17-11.52C120.02,159.01,120.02,154.51,120.03,150.02z M125.46,189.77
			c0.07-0.3,0.15-0.61,0.22-0.91c-0.51-0.31-1.03-0.62-1.54-0.92c-25.79-15.34-39.46-45.02-34.17-74.57
			c3.87-21.66,15.88-38.24,33.82-50.16c32.05-21.29,66.49-23.87,102.36-10.99c16.75,6.01,31.73,15.08,45.36,26.5
			c9.02,7.55,21.14,7.06,29.23-0.84c8.88-8.67,8.34-22.45-1.46-31.56c-8.83-8.21-18.79-14.9-29.41-20.55
			C241.23,10.49,210.6,4.53,178.34,6.8c-25.17,1.77-49.04,8.18-70.33,22.08c-33.11,21.63-52.26,52.34-56.99,91.58
			c-2.91,24.12,2.59,46.62,15.96,67.06c0.84,1.29,1.64,2.29,3.49,2.28C88.79,189.74,107.13,189.77,125.46,189.77z M37.51,189.58
			c0,0.01,0,0.01,0,0.02c6.25,0,12.49-0.03,18.74,0.02c2.07,0.02,2.8-0.41,1.52-2.51c-1.62-2.66-3.14-5.4-4.44-8.23
			C39,147.83,39.38,116.6,52.23,85.21c6.06-14.8,14.5-28.1,24.66-40.43c7.89-9.56,6.9-22.17-1.86-29.91
			c-8.72-7.7-21.29-6.97-29.99,1.79c-4.06,4.09-7.56,8.66-10.86,13.36C17.29,54.04,7.69,80.75,5.15,109.96
			c-2.29,26.25,0.94,51.78,10.58,76.43c1.01,2.57,2.31,3.33,4.92,3.25C26.27,189.46,31.89,189.58,37.51,189.58z M136.33,127.09
			c3.25-1.31,5.68-2.62,8.28-3.28c22.21-5.73,41.49,0.35,58.09,15.39c13.93,12.63,21.04,28.84,22.8,47.45
			c0.18,1.89,0.27,3.23,2.88,3.19c11.11-0.15,22.23-0.1,33.35-0.05c1.83,0.01,2.71-0.37,2.66-2.46
			c-0.53-26.16-7.99-49.73-26.63-68.75c-15.89-16.22-35.33-23.06-57.91-19.5C161.69,101.94,147.34,111.21,136.33,127.09z
			 M159.17,182.39c12.56,0.14,23.02-9.87,23.14-22.15c0.13-13.12-10.05-23.71-22.84-23.77c-12.56-0.06-22.87,10.08-23.09,22.7
			C136.16,172.05,146.16,182.24,159.17,182.39z M189.65,138.9c2.61,5.25,4.25,10.64,4.75,16.43c0.94,10.93-0.77,21.4-5.35,31.37
			c-1,2.17-0.99,3.05,1.79,3.02c8.24-0.1,16.49-0.04,24.73,0.08c2.21,0.03,2.76-0.69,2.5-2.85c-0.84-6.97-2.25-13.77-5.04-20.26
			C208.04,155.06,200.43,145.65,189.65,138.9z"/>
		<path class="st1" d="M125.46,189.77c-18.33,0-36.66-0.03-54.99,0.04c-1.85,0.01-2.64-0.99-3.49-2.28
			c-13.37-20.44-18.86-42.94-15.96-67.06c4.73-39.24,23.89-69.95,56.99-91.58C129.3,14.98,153.17,8.58,178.34,6.8
			c32.26-2.27,62.89,3.69,91.53,18.94c10.61,5.65,20.58,12.34,29.41,20.55c9.8,9.11,10.34,22.89,1.46,31.56
			c-8.09,7.91-20.22,8.39-29.23,0.84c-13.63-11.42-28.61-20.49-45.36-26.5c-35.87-12.87-70.32-10.3-102.36,10.99
			c-17.94,11.92-29.95,28.5-33.82,50.16c-5.28,29.55,8.38,59.23,34.17,74.57c0.52,0.31,1.03,0.62,1.54,0.92
			C125.6,189.16,125.53,189.46,125.46,189.77z"/>
		<path class="st2" d="M120.01,163.5c0.95,3.87,1.49,7.85,3.17,11.52c0.39,0.86,1.32,1.93,0.23,2.64c-0.98,0.64-1.82-0.49-2.57-1.09
			c-12.38-9.92-20.29-22.65-23.15-38.23c-5.53-30.19,8.95-58.31,38.09-73.71c31.84-16.82,64.37-16.29,96.67-1.83
			c40.28,18.03,63.87,49.83,73.54,92.43c2.3,10.12,3.55,20.39,4.03,30.77c0.13,2.86-0.54,3.88-3.63,3.82
			c-9.99-0.2-20-0.27-29.98,0.03c-3.7,0.11-4.6-1.12-4.59-4.55c0.03-15.06-3.07-29.51-9.26-43.23
			c-10.12-22.45-25.63-39.56-49.43-47.76c-37.56-12.94-82.93,8.75-92.02,50.21c-0.4,1.82-0.73,3.66-1.09,5.49
			C118.13,154.51,117.6,159,120.01,163.5z"/>
		<path class="st2" d="M37.51,189.58c-5.62,0-11.25-0.12-16.86,0.05c-2.61,0.08-3.92-0.68-4.92-3.25
			c-9.64-24.65-12.87-50.18-10.58-76.43c2.55-29.21,12.15-55.92,29.04-79.94c3.3-4.7,6.8-9.27,10.86-13.36
			c8.7-8.76,21.27-9.49,29.99-1.79c8.75,7.73,9.74,20.34,1.86,29.91c-10.16,12.33-18.6,25.63-24.66,40.43
			c-12.85,31.39-13.23,62.62,1.1,93.67c1.3,2.83,2.82,5.57,4.44,8.23c1.28,2.1,0.55,2.52-1.52,2.51
			c-6.25-0.05-12.49-0.02-18.74-0.02C37.51,189.59,37.51,189.59,37.51,189.58z"/>
		<path class="st1" d="M136.33,127.09c11.01-15.87,25.36-25.15,43.51-28.02c22.58-3.57,42.02,3.28,57.91,19.5
			c18.64,19.03,26.1,42.59,26.63,68.75c0.04,2.09-0.84,2.47-2.66,2.46c-11.12-0.05-22.23-0.11-33.35,0.05
			c-2.61,0.04-2.7-1.3-2.88-3.19c-1.76-18.62-8.86-34.82-22.8-47.45c-16.6-15.04-35.88-21.11-58.09-15.39
			C142.01,124.47,139.58,125.77,136.33,127.09z"/>
		<path class="st3" d="M159.17,182.39c-13.01-0.15-23.01-10.33-22.79-23.22c0.22-12.62,10.52-22.76,23.09-22.7
			c12.79,0.06,22.97,10.65,22.84,23.77C182.19,172.52,171.74,182.53,159.17,182.39z"/>
		<path class="st4" d="M189.65,138.9c10.78,6.75,18.39,16.16,23.39,27.79c2.79,6.48,4.2,13.28,5.04,20.26
			c0.26,2.16-0.3,2.88-2.5,2.85c-8.24-0.12-16.49-0.17-24.73-0.08c-2.78,0.03-2.79-0.85-1.79-3.02c4.58-9.96,6.29-20.43,5.35-31.37
			C193.9,149.54,192.25,144.15,189.65,138.9z"/>
		<path class="st4" d="M120.01,163.5c-2.41-4.5-1.88-8.99,0.02-13.48C120.02,154.51,120.02,159.01,120.01,163.5z"/>
	</g>
</g>
<g id="Layer_2">
	<rect x="-11.73" y="1.73" class="st5" width="321.13" height="188.09"/>
</g>
</svg>
