<svg xmlns="http://www.w3.org/2000/svg" xmlns:xlink="http://www.w3.org/1999/xlink" viewBox="0 0 393.95 158.01"><defs><linearGradient id="a" x1="85.99" y1="76.97" x2="102.77" y2="76.97" gradientUnits="userSpaceOnUse"><stop offset="0" stop-color="#2b368b" stop-opacity=".5"/><stop offset=".26" stop-color="#2b368b" stop-opacity=".43"/><stop offset=".7" stop-color="#2b368b" stop-opacity=".25"/><stop offset="1" stop-color="#2b368b" stop-opacity=".1"/></linearGradient><linearGradient id="b" x1="111.95" y1="117.85" x2="127.87" y2="117.85" xlink:href="#a"/><linearGradient id="c" x1="51.19" y1="107.36" x2="59.04" y2="107.36" xlink:href="#a"/><linearGradient id="d" x1="18.32" y1="131.39" x2="27.79" y2="131.39" xlink:href="#a"/></defs><g data-name="Layer 2" style="isolation:isolate"><path fill="none" d="M252.6 108.96h7.44l-3.72-14.48-3.72 14.48z"/><path d="M183.14 102.38l-10.65-2.87c-1-.28-1.2-.45-1.2-1.08v-3.1c0-.8.23-1 1-1h6.58c.8 0 1 .23 1 1v3.27h10.83v-5.1c0-5.27-2.52-7.78-7.79-7.78h-14.6c-5.27 0-7.79 2.51-7.79 7.78v7c0 5.72 2.64 6.7 8.25 8.24l10.65 2.92c.92.23 1.2.4 1.2 1v3.5c0 .8-.23 1-1 1h-7.42c-.8 0-1-.23-1-1v-3.67h-10.79V118c0 5.27 2.52 7.79 7.79 7.79h15.4c5.27 0 7.79-2.52 7.79-7.79v-7.39c0-5.71-2.64-6.74-8.25-8.23zM221.22 100.72h-11.51v-15h-10.77v40.08h10.77v-15.92h11.51v15.92h10.76V85.72h-10.76v15zM249.39 85.72l-12.08 40.08h11l2.12-8.25h11.8l2.12 8.25h11.45l-12.2-40.08zM252.6 109l3.72-14.48L260 109zM304.53 85.72h-23.42v40.08h10.77v-12.43h12.65c5.27 0 7.79-2.52 7.79-7.79V93.5c0-5.27-2.52-7.78-7.79-7.78zm-3 17.8c0 .81-.22 1-1 1h-8.64v-10h8.64c.81 0 1 .23 1 1z" fill="#0e4c86"/><path d="M184.29 32.69H169c-5.27 0-7.91 2.52-7.91 7.78V65c0 5.27 2.52 7.79 7.79 7.79h15.29c5.27 0 7.79-2.52 7.79-7.79v-7.5h-10.77v5.33c0 .8-.23 1-1 1h-7.27c-.8 0-1-.23-1-1V42.65c0-.8.23-1 1-1h7.27c.8 0 1 .23 1 1V48H192v-7.53c0-5.26-2.45-7.78-7.71-7.78zM199.12 32.69h10.76v40.08h-10.76zM216.12 41.85h10.02v30.92h10.77V41.85h10.02v-9.16h-30.81v9.16zM274.7 32.69l-6.53 17-6.53-17h-11.68l12.77 27.65v12.43h10.77V60.34l12.77-27.65H274.7z" fill="#00c1de"/><path d="M133.5 38L68 .23a1.69 1.69 0 0 0-1.71 0L.85 38A1.68 1.68 0 0 0 0 39.5v48.65l9.37-5.51V46.33l18.35-10.76a1.83 1.83 0 0 1 1.85 0l2.22 1.27a33 33 0 0 1 9.85 8.69V28l25.13-14.68a1.84 1.84 0 0 1 1.88 0L93.26 28v29.87l17.31 9.76v-6.15l12.33-13.86a1.82 1.82 0 0 1 2.32-.36l9.13 5.45V39.5a1.7 1.7 0 0 0-.85-1.5z" fill="#ade1ee"/><path d="M124.2 114a10.52 10.52 0 0 0-2.32 3.24v-.06l-1.33-.8a6.34 6.34 0 0 0 .51-3.6 7.52 7.52 0 0 0-2.24-4.26V95.06L80.25 117.8v7.37l4.28 2.44v-2.1l2.87-1.66V126l-2.79 1.61 3.8 2.17v-.31l2.87-1.66V130l-1.23.72 2.79 1.58-25.54 15V158a1.76 1.76 0 0 0 .73-.22l3.18-1.78v-7.64l2.88-1.67v7.65l2.08-1.2v-7.65l2.83-1.7v7.65l2.08-1.2v-7.65l2.92-1.65v7.65l2.08-1.21v-7.64l2.88-1.67v7.65l3.91-2.26L133 120.27c-.1-2-1.14-4.63-5.09-7l6.44 3.73-6-3.51a3.28 3.28 0 0 0-4.15.51zm-36.8 5.8l-2.87 1.65v-2.19l2.87-1.65zm24.31-16.23l2.86-1.65v2.19l-2.86 1.65zm0 6.25l2.86-1.66v2.19l-2.86 1.65zm0 6.24l2.86-1.66v2.19l-2.86 1.66zm0 6.24l2.86-1.65v2.19l-2.86 1.66zm-3.89-16.49l2.87-1.65v2.19l-2.87 1.65zm0 6.25l2.87-1.66v2.19l-2.87 1.66zm0 6.24l2.87-1.66v2.2l-2.87 1.65zm0 6.24l2.87-1.65v2.19l-2.87 1.66zm-3.88-16.49l2.87-1.65v2.19l-2.87 1.66zm0 6.25l2.87-1.66v2.19l-2.87 1.66zm0 6.24l2.87-1.65v2.19l-2.87 1.65zm0 6.25l2.87-1.66v2.19l-2.87 1.68zm-3.88-16.49l2.87-1.66v2.19l-2.87 1.66zm0 6.24l2.87-1.66v2.2l-2.87 1.65zm0 6.24l2.87-1.65v2.19l-2.87 1.68zm0 6.25l2.87-1.66v2.19l-2.87 1.66zm-3.88-16.49l2.87-1.66v2.19l-2.87 1.66zm0 6.24l2.87-1.66v2.2L96.18 121zm0 6.25l2.87-1.66v2.19l-2.87 1.66zm0 6.24l2.87-1.66v2.19l-2.87 1.66zm-3.89-16.49l2.87-1.66v2.2L92.29 117zm0 6.24l2.87-1.65v2.19l-2.87 1.66zm-1 2.78l-2.87 1.66v-2.2l2.87-1.65zm0-6.24l-2.87 1.65V117l2.87-1.66zm1 11.9v-2.19l2.87-1.66v2.19zm.55 3.74l2.32-1.35v2.2l-2.32 1.34zM31.2 74.15l2.8-1.64a3.44 3.44 0 0 0-.1-.84 4.63 4.63 0 0 1-.16-1.26c0-2 1.22-3.67 2.72-3.67s2.73 1.64 2.73 3.67a4.79 4.79 0 0 1-.16 1.22 2.82 2.82 0 0 0 .24 2 3.47 3.47 0 0 1 .28.86l2.06 1.18V45.52a33 33 0 0 0-9.85-8.69l-2.22-1.27a1.83 1.83 0 0 0-1.85 0L9.37 46.33l3.14 1.81A32.89 32.89 0 0 1 20 54l.31.33.38.42c.1.11.19.22.29.32l.41.49.34.41A34.29 34.29 0 0 1 24 59.12l.22.35.23.38.28.48.14.25a34.768 34.768 0 0 1 1.38 2.74 1 1 0 0 1 0 .1l.15.33.24.57.12.32a3.45 3.45 0 0 1 .14.34c.26.68.5 1.36.71 2.06.06.22.13.44.19.66s.05.16.07.24.11.4.16.6c.16.63.3 1.26.43 1.89v.07a2.56 2.56 0 0 1 .05.27v.06h.13c1.18-.03 2.17 1.37 2.56 3.32zM110.57 90.34v-20l-10.66 6.17v7.82a2 2 0 0 1 .43.17zM73.73 99.16L74 99l2.43 1.42 2.12 1.24 5.81-3.41v6l-.7.4.7.41 1.27.75.34.2.36-.2.32-.18V91.54l.43-.25L90 89.61l3.29-1.93V28L67.74 43v59.64l3.13-1.84zm0-.57l-2.86 1.66v-5.9l2.86-1.68zm0-11.83l-2.86 1.66v-5.9l2.86-1.68zm0-11.82l-2.86 1.66v-5.9l2.86-1.7zm0-11.83l-2.86 1.66v-5.9l2.86-1.68zM84.39 92.4L76.46 97v-5.94l7.93-4.66zm0-11.83l-7.93 4.61v-5.94l7.93-4.66zm0-11.82l-7.93 4.6v-5.94l7.93-4.66zm0-11.83l-7.93 4.61v-5.94l7.93-4.66zM90 89.15l-2.86 1.66v-6L90 83.12zm0-11.83L87.11 79v-6L90 71.29zm0-11.82l-2.86 1.66v-6L90 59.47zm0-11.82l-2.86 1.66v-6l2.86-1.7zm0-11.83l-2.86 1.66v-6L90 35.82zm-5.61 3.25l-7.93 4.6v-5.94l7.93-4.66zm-10.66 6.19L70.87 53v-5.9l2.86-1.68zM0 118.51a1.73 1.73 0 0 0 0 .32l9.27-5.24.27.15V105L0 110.61zM54.59 117.19V83L29.06 98v38.26l2.5 1.45 6.55 3.78 9.7-5.45L61 128.38v-7.51l-2-1.15zm-7.87-24.73l2.65-1.54v6l-2.65 1.54zm0 8.14l2.65-1.53V112l-2.65 1.53zm0 15.08l2.65-1.53v10.15l-2.65 1.53zm-5.87-19.83l2.65-1.54v6l-2.65 1.54zm0 8.14l2.65-1.53v12.94l-2.65 1.53zm0 15.08l2.65-1.53v10.15l-2.65 1.53zM35 99.24l2.66-1.54v6L35 105.24zm0 8.14l2.66-1.53v12.94L35 120.32zm0 15.08l2.66-1.53v10.15L35 132.61zM22.42 132.44v-11.36l-9.87 5.66 9.87 5.7z" fill="#0e4c86"/><path d="M21.72 56l-.34-.41-.38-.5c-.1-.1-.19-.21-.29-.32l-.38-.42L20 54l-.18-.19-10.44-6v1.26L22 56.36zM25.08 61c-.08-.15-.16-.3-.25-.45l-.14-.25-.28-.48-.23-.38-.18-.32-14.63-8.35V52l15.71 9zM26.9 65a3.45 3.45 0 0 0-.14-.34l-.12-.32-.24-.57-.15-.33a1 1 0 0 0 0-.1L9.37 53.68v1.26L26.89 65zM28 68.53c-.05-.2-.1-.4-.16-.6s-.05-.16-.07-.24-.13-.44-.19-.66L9.37 56.59v1.26L28 68.53zM28.53 70.82v-.06a2.56 2.56 0 0 0-.05-.27v-.07L9.37 59.5v1.26l18.24 10.45a1.66 1.66 0 0 1 .92-.39zM26.73 72.34L9.37 62.41v1.26l17 9.7a6 6 0 0 1 .36-1.03zM20.82 72.27c1.07 0 1.86.51 2.26 2.16l2.86 1.64a9.44 9.44 0 0 1 .07-1.2L9.37 65.32v1.26l10.34 5.92a2.57 2.57 0 0 1 1.11-.23zM18.72 73.58l-9.35-5.35v1.26l9 5.17a4.45 4.45 0 0 1 .35-1.08zM18.23 76.37v-.16l-8.86-5.07v1.26l9 5.17a5.66 5.66 0 0 1-.14-1.2zM18.51 79.28l-9.14-5.23v1.26l8.85 5.07a6.85 6.85 0 0 0 .29-1.1zM93.26 63.59v9.09l4.85 2.79 1.8 1.04 10.66-6.18v-2.7l-17.31-9.76v5.72zM93.26 28L68.65 13.33a1.84 1.84 0 0 0-1.88 0L41.64 28l26.1 15zM64.5 47.28l-3.24-1.91v5.92l3.24 1.88v-5.89zM47.48 37.27l-2.73-1.61v6.04l2.73 1.58v-6.01zM58.53 43.76l-8.32-4.89v6l8.32 4.83v-5.94zM47.48 49.09l-2.73-1.6v6.03l2.73 1.59v-6.02zM58.53 55.59l-8.32-4.89v6l8.32 4.83v-5.94zM61.26 63.11L64.5 65v-5.9l-3.24-1.91v5.92zM61.26 74.94l3.24 1.89v-5.9l-3.24-1.91v5.92zM58.53 67.41l-8.32-4.89v6l8.32 4.83v-5.94zM47.48 60.92l-2.73-1.61v6.04l2.73 1.59v-6.02zM50.21 80.34l8.32 4.84v-5.94l-8.32-4.89v5.99zM61.26 86.76l3.24 1.89v-5.9l-3.24-1.91v5.92zM44.75 77.17l2.73 1.59v-6.02l-2.73-1.6v6.03zM61.26 98.59l3.24 1.88v-5.89l-3.24-1.91v5.92zM122.9 47.62l-12.33 13.86 23.78 13.68V52.71l-9.13-5.45a1.82 1.82 0 0 0-2.32.36zM133 120.27l.5-.28a1.72 1.72 0 0 0 .85-1.48V117l-6.44-3.73c3.95 2.37 4.99 5.02 5.09 7z" fill="#00c1de"/><path d="M118.85 108.48a7.52 7.52 0 0 1 2.24 4.26 6.34 6.34 0 0 1-.51 3.6l1.33.8v.06a10.52 10.52 0 0 1 2.29-3.2 3.28 3.28 0 0 1 4.17-.47l6 3.51v-.46l-15.5-8.86zM121.01 105.62l.165-.298 1.181.654-.165.297zM134.35 112.99v-.22l-.1.17.1.05zM126.306 108.56l.165-.297 1.18.654-.164.297zM123.646 107.087l.165-.298 1.181.654-.165.298zM131.606 111.483l.165-.298 1.181.654-.165.297zM128.947 110.019l.164-.297 1.181.653-.164.298zM119.53 104.8l.17-.3-.85-.47v.39l.68.38zM100.34 84.5a2 2 0 0 0-.43-.17 1.72 1.72 0 0 0-1.27.19l-1 .58-4.38 2.58L90 89.61l-2.86 1.68-.43.25L99 98.77l-12.29 6.91v-.08l-.32.18-.39.22-.34-.2-1.27-.8-.7-.41-5.11-3-2.12-1.24L74 99l-.3.18-2.86 1.68-3.13 1.84-3.24 1.9-1.55.91-1.69-1v2l-.24.14 19.26 11.15 38.6-22.74-8.28-4.72zM77.15 121.45v-2.19l-2.87-1.65v2.19l2.87 1.65zM73.27 119.21v-2.19l-2.87-1.66v2.2l2.87 1.65zM69.39 114.78l-2.87-1.66v2.19l2.87 1.66v-2.19zM65.5 112.54l-2.87-1.66v2.19l2.87 1.66v-2.19zM66.52 121.56l2.87 1.66v-2.2l-2.87-1.65v2.19zM62.63 119.32l2.87 1.65v-2.19l-2.87-1.65v2.19zM58.53 93.94v-2.88l-3.94-2.31v5.97L58.53 97v-3.06zM54.59 106.54l3.94 2.29v-5.94l-3.94-2.32v5.97zM50.21 80.51L47.48 79l-2.73-1.56-3.11-1.77-2.06-1.18a4.21 4.21 0 0 1 0 .51A3.07 3.07 0 0 1 37 78v2.69a.92.92 0 0 1-1 0V78a3.11 3.11 0 0 1-2.53-3 2.9 2.9 0 0 1 .28-1.32 2.89 2.89 0 0 0 .25-1.17l-2.8 1.64a9.55 9.55 0 0 1 .18 1.85c0 2.58-1 4.72-2.24 5.16v3.55a.92.92 0 0 1-1 0V81.2c-1.08-.37-1.94-2-2.18-4l-.5.29-2.16-1.24a8.63 8.63 0 0 1-.11 1.21l1.17.67-1.3.76c0 1 .75 1.92.78 2.79a3.34 3.34 0 0 1-2.57 3.65v3.51a.92.92 0 0 1-1 0v-3.55a3.25 3.25 0 0 1-2.52-3.38.38.38 0 0 1 0-.1L9.37 77v1.26l7.46 4.27-1.43.83-6-3.45v1.26L14.3 84l-1.16.67-3.64-2.11-.13.08L0 88.15v22.46L9.57 105V86.71L29.06 98l25.53-15zM9.3 113.59L0 118.83A1.72 1.72 0 0 0 .85 120l11.7 6.75 9.87-5.66-12.85-7.35z" fill="#00c1de"/><path d="M88.41 129.82l-3.8-2.17h-.08l-4.28-2.44-5.84-3.33a2.14 2.14 0 0 0-2.12 0l-.74.42-1.15-.66v1.33l-4.9 2.84V125l-2.87-1.66v2.19l1.64.94-3.27 1.91-13.21 7.67 19.49 11.3 25.54-15-2.79-1.58z" fill="#00c1de"/><path fill="#00c1de" d="M47.81 147.1v-11.05l-9.71 5.45 9.71 5.6zM58.05 153.01l2.15 1.24v-1.46l-2.15-1.24v1.46zM54.33 150.87l2.15 1.24v-1.46l-2.15-1.25v1.47zM61.76 155.16l2.17 1.25v-1.47l-2.17-1.25v1.47zM50.6 148.71l2.17 1.26v-1.47l-2.17-1.25v1.46zM54.33 146.68l2.15 1.24v-3.42l-2.15-1.24v3.42zM58.05 148.83l2.15 1.24v-3.42l-2.15-1.24v3.42zM50.6 144.53l2.17 1.25v-3.42l-2.17-1.25v3.42zM61.76 150.97l2.17 1.25v-3.42l-2.17-1.25v3.42z"/><path d="M26 77.17a9.87 9.87 0 0 1-.06-1.1l-2.86-1.64a9.76 9.76 0 0 1 .25 1.57v.22l2.16 1.24zM23.09 78.81l1.3-.76-1.17-.67a8.72 8.72 0 0 0-.13 1.43zM25.08 61L9.37 52v1.65l16.84 9.64c-.35-.75-.73-1.52-1.13-2.29zM28 68.53L9.37 57.85v1.65l19.09 10.92c-.13-.63-.27-1.26-.46-1.89zM16.83 82.49l-7.46-4.27v1.65l6.03 3.45 1.43-.83zM27.61 71.21L9.37 60.76v1.65l17.36 9.93a3.47 3.47 0 0 1 .88-1.13zM14.3 83.96l-4.93-2.83v1.51l.13-.08 3.64 2.07 1.16-.67zM18.22 80.38l-8.85-5.07V77l8.47 4.84a6.13 6.13 0 0 1 .38-1.46zM18.55 78.81a6.28 6.28 0 0 0-.16-1.24l-9-5.17v1.65l9.14 5.23a2.42 2.42 0 0 0 .02-.47zM26.32 73.37l-17-9.7v1.65L26 74.84a8.31 8.31 0 0 1 .32-1.47zM19.71 72.5L9.37 66.58v1.65l9.35 5.35a2.15 2.15 0 0 1 .99-1.08zM18.39 74.66l-9-5.17v1.65l8.87 5.07a9.47 9.47 0 0 1 .13-1.55zM26.89 65L9.37 55v1.65L27.6 67c-.21-.67-.45-1.35-.71-2zM21.72 56l.29.37zM22 56.36L9.37 49.12v1.65L24 59.12a33.44 33.44 0 0 0-2-2.76zM19.81 53.83L20 54zM12.51 48.14l-3.14-1.81v1.53l10.43 6a32.56 32.56 0 0 0-7.29-5.72zM93.26 72.68v15l4.38-2.58 1-.58a1.72 1.72 0 0 1 1.27-.19v-7.82l-1.81-1zM89.97 47.64l-2.86 1.68v6.02l2.86-1.67v-6.03zM73.73 57.19l-2.86 1.68v5.9l2.86-1.66v-5.92zM76.46 61.53l7.93-4.61v-5.99l-7.93 4.66v5.94zM73.73 69.02l-2.86 1.68v5.9l2.86-1.66v-5.92zM76.46 73.35l7.93-4.6v-6l-7.93 4.66v5.94zM89.97 59.47l-2.86 1.68v6.01l2.86-1.66v-6.03zM73.73 80.84l-2.86 1.68v5.9l2.86-1.66v-5.92zM76.46 85.18l7.93-4.61v-5.99l-7.93 4.66v5.94zM89.97 71.29l-2.86 1.68v6.02l2.86-1.66v-6.04zM73.73 92.67l-2.86 1.68v5.9l2.86-1.66v-5.92zM76.46 97l7.93-4.6v-6l-7.93 4.66V97zM89.97 83.12l-2.86 1.68v6.01l2.86-1.66v-6.03zM83.69 104.63l.7-.41v-5.99l-5.81 3.41 5.11 2.99z" fill="#0b7abe"/><path d="M61.26 106.49v-2l1.69 1 1.55-.91 3.24-1.9V43l-26.1-15v47.62l3.11 1.77L47.48 79l2.73 1.56L54.59 83v5.75l3.94 2.31V97l-3.94-2.29v5.86l3.94 2.32v5.94l-3.94-2.29v10.65l4.41 2.53 2 1.15v7.51l3.25-1.88-1.64-.94v-2.19L65.5 125v.75l4.9-2.84v-1.33l1.15.66.74-.42a2.14 2.14 0 0 1 2.12 0l5.84 3.33v-7.35L61 106.63zm13 11.12l2.87 1.65v2.19l-2.87-1.65zm-3.88-2.25l2.89 1.64v2.19l-2.87-1.65zm-3.88-2.24l2.87 1.66V117l-2.87-1.65zm0 6.25l2.89 1.63v2.2l-2.87-1.66zm-3.89-8.49l2.87 1.66v2.19l-2.87-1.66zm0 6.24l2.87 1.66V121l-2.87-1.65zm1.87-16.65l-3.24-1.88v-5.92l3.24 1.91zm0-11.82l-3.24-1.89v-5.92l3.24 1.91zm0-11.83l-3.24-1.88V69l3.24 1.91zM64.5 65l-3.24-1.89v-5.92l3.24 1.91zm0-11.82l-3.24-1.89v-5.92l3.24 1.91zm-14.29 9.34l8.32 4.89v5.94l-8.32-4.83zm0-5.82v-6l8.32 4.89v5.94zm0-11.83v-6l8.32 4.89v5.94zm-2.73 33.89l-2.73-1.59v-6l2.73 1.6zm0-11.83l-2.73-1.58v-6l2.73 1.61zm0-11.82l-2.73-1.59v-6l2.73 1.6zm0-11.82l-2.73-1.59v-6l2.73 1.61zm2.73 37.06v-6l8.32 4.89v5.94zM110.57 61.48V69.28l23.78 13.67v-7.79l-23.78-13.68zM118.85 101.11l15.5 8.57v-3.34l-15.5-8.91v3.68zM110.57 79.42l23.78 13.67v-7.02L110.57 72.4v7.02zM110.57 89.55l23.78 13.68v-7.02l-23.78-13.67v7.01zM86.68 91.54v14.15l12.29-6.92-12.29-7.23zM84.53 121.45l2.87-1.65v-2.19l-2.87 1.65v2.19zM88.41 119.21l2.87-1.65v-2.2l-2.87 1.66v2.19zM92.29 116.97l2.87-1.66v-2.19l-2.87 1.66v2.19zM96.17 114.73l2.88-1.66v-2.19l-2.88 1.66v2.19zM100.06 112.49l2.87-1.66v-2.19l-2.87 1.66v2.19zM103.94 110.25l2.87-1.66v-2.19l-2.87 1.66v2.19zM107.82 108.01l2.87-1.66v-2.19l-2.87 1.65v2.2zM111.7 105.76l2.88-1.65v-2.19l-2.88 1.65v2.19zM84.53 127.61l.08.04 2.79-1.61v-2.19l-2.87 1.66v2.1zM88.41 125.46l2.87-1.66v-2.19l-2.87 1.66v2.19zM92.29 123.22l2.87-1.66v-2.19l-2.87 1.65v2.2zM96.17 120.97l2.88-1.65v-2.19l-2.88 1.65v2.19zM100.06 118.73l2.87-1.65v-2.2l-2.87 1.66v2.19zM103.94 116.49l2.87-1.66v-2.19l-2.87 1.66v2.19zM107.82 114.25l2.87-1.66v-2.19l-2.87 1.66v2.19zM111.7 112.01l2.88-1.66v-2.19l-2.88 1.66v2.19zM88.41 129.82l1.64.93 1.23-.71v-2.19l-2.87 1.66v.31zM92.29 129.46l2.87-1.66v-2.19l-2.87 1.66v2.19zM96.17 127.22l2.88-1.66v-2.19l-2.88 1.66v2.19zM100.06 124.98l2.87-1.66v-2.19l-2.87 1.65v2.2zM103.94 122.73l2.87-1.65v-2.19l-2.87 1.65v2.19zM107.82 120.49l2.87-1.65v-2.2l-2.87 1.66v2.19zM111.7 118.25l2.88-1.66v-2.19l-2.88 1.66v2.19zM92.84 135.39l2.32-1.34v-2.2l-2.32 1.35v2.19zM96.17 133.46l2.88-1.66v-2.19l-2.88 1.66v2.19zM100.06 131.22l2.87-1.66v-2.19l-2.87 1.66v2.19zM103.94 128.98l2.87-1.66v-2.19l-2.87 1.66v2.19zM107.82 126.74l2.87-1.66v-2.19l-2.87 1.65v2.2zM111.7 124.5l2.88-1.66v-2.19l-2.88 1.65v2.2zM9.57 105v8.76l12.85 7.34v11.36l5.35 3.09 1.29.74V98L9.57 86.71zm3.63-11.48l11.38 6.61v9.41l-11.38-6.62zM34.97 105.24l2.66-1.54v-6l-2.66 1.54v6zM40.84 101.85l2.66-1.54v-6l-2.66 1.54v6z" fill="#0b7abe"/><path fill="#0b7abe" d="M49.37 90.92l-2.65 1.54v6l2.65-1.54v-6zM34.97 120.32l2.66-1.53v-12.94l-2.66 1.53v12.94zM40.84 116.93l2.66-1.53v-12.94l-2.66 1.53v12.94zM46.72 113.54l2.65-1.53V99.07l-2.65 1.53v12.94zM34.97 132.61l2.66-1.53v-10.15l-2.66 1.53v10.15zM40.84 129.22l2.66-1.53v-10.15l-2.66 1.53v10.15zM46.72 125.83l2.65-1.53v-10.15l-2.65 1.53v10.15zM47.81 147.1l2.79 1.61v-1.46l2.17 1.25v1.5l1.56.9v-1.5l2.15 1.24v1.47l1.57.9v-1.46l2.15 1.24v1.46l1.56.91v-1.47l2.17 1.25v1.47l2.39 1.38a1.7 1.7 0 0 0 1 .22v-10.66l-19.49-11.3zm16.12 5.12L61.76 151v-3.42l2.17 1.25zm-3.73-2.15l-2.15-1.24v-3.42l2.15 1.24zm-3.72-2.15l-2.15-1.24v-3.42l2.15 1.24zm-5.88-6.81l2.17 1.25v3.42l-2.17-1.25z"/><path fill="#e19fc9" d="M73.73 45.37l-2.86 1.68v5.9l2.86-1.66v-5.92zM76.46 49.7l7.93-4.6v-6l-7.93 4.66v5.94zM87.11 43.51l2.86-1.66v-6.03l-2.86 1.68v6.01zM110.57 69.28v3.12l23.78 13.67v-3.12l-23.78-13.67zM110.57 82.54l23.78 13.67v-3.12l-23.78-13.67v3.12zM110.57 90.34l8.28 4.72v2.37l15.5 8.91v-3.11l-23.78-13.68v.79zM13.2 102.92l11.39 6.62v-9.41L13.2 93.52v9.4zM71.21 155.95l2.88-1.66v-7.65l-2.88 1.67v7.64zM76.17 153.09l2.86-1.65v-7.65l-2.86 1.65v7.65zM86.05 147.38l2.88-1.66v-7.65l-2.88 1.67v7.64zM81.11 150.24l2.86-1.65v-7.65l-2.86 1.65v7.65zM20.35 85.29a2 2 0 0 0 .47.06 2.81 2.81 0 0 0 .49 0 3.34 3.34 0 0 0 2.57-3.65c0-.87-.76-1.79-.78-2.79a8.72 8.72 0 0 1 .14-1.38 8.63 8.63 0 0 0 .11-1.21v-.22a9.76 9.76 0 0 0-.25-1.57c-.4-1.65-1.19-2.16-2.26-2.16a2.57 2.57 0 0 0-1.11.23 2.15 2.15 0 0 0-1 1.08 4.45 4.45 0 0 0-.33 1.08 9.47 9.47 0 0 0-.15 1.55v.16a5.66 5.66 0 0 0 .16 1.2 6.28 6.28 0 0 1 .16 1.24 2.42 2.42 0 0 1 0 .47 6.85 6.85 0 0 1-.29 1.1 6.13 6.13 0 0 0-.38 1.42.38.38 0 0 0 0 .1 3.25 3.25 0 0 0 2.45 3.29zM28.66 70.8h-.13a1.66 1.66 0 0 0-.92.39 3.47 3.47 0 0 0-.88 1.13 6 6 0 0 0-.41 1 8.31 8.31 0 0 0-.32 1.52 9.44 9.44 0 0 0-.07 1.2 9.87 9.87 0 0 0 .06 1.1c.24 2.06 1.1 3.66 2.18 4a1.48 1.48 0 0 0 1 0c1.27-.44 2.24-2.58 2.24-5.16a9.55 9.55 0 0 0-.18-1.89c-.42-1.89-1.41-3.29-2.57-3.29zM39.3 73.58a2.82 2.82 0 0 1-.24-2 4.79 4.79 0 0 0 .16-1.22c0-2-1.22-3.67-2.73-3.67s-2.72 1.64-2.72 3.67a4.63 4.63 0 0 0 .16 1.26 3.44 3.44 0 0 1 .1.84 2.89 2.89 0 0 1-.27 1.15 2.9 2.9 0 0 0-.28 1.39A3.11 3.11 0 0 0 36 78h.44a4.41 4.41 0 0 0 .56 0 3.07 3.07 0 0 0 2.65-3 4.21 4.21 0 0 0 0-.51 3.47 3.47 0 0 0-.35-.91z"/><path d="M118.85 104l.85.47-.17.3-.68-.38v3.26l15.5 8.86V113h-.1l.1-.17v-3.09l-15.5-8.57zm12.92 7.15l1.18.65-.17.3-1.18-.65zm-2.65-1.47l1.18.65-.17.3L129 110zm-2.65-1.46l1.18.65-.17.3-1.18-.65zm-2.65-1.47l1.18.65-.17.3-1.18-.65zm-2.65-1.46l1.18.65-.17.3-1.18-.65z" fill="#154373"/><path style="mix-blend-mode:multiply" opacity=".5" fill="url(#a)" d="M93.26 69.36v18.32l4.38-2.58v-9.34l.47-.29 4.62-2.97-9.47-6.25v3.11z"/><path style="mix-blend-mode:multiply" opacity=".5" fill="url(#b)" d="M124.2 113.96l-3.11-1.22-2.24-.88v11.99l8.98-8.46-3.63-1.43z"/><path style="mix-blend-mode:multiply" opacity=".5" fill="url(#c)" d="M54.59 90V124.71l4.43-4.42V94.43l-.49-.49L54.59 90z"/><path style="mix-blend-mode:multiply" opacity=".5" fill="url(#d)" d="M22.42 127.25v5.19l5.35 3.09-.04-5.26-5.31-3.02z"/><path d="M20.35 85.29v3.52a.92.92 0 0 0 1 0V85.3a2.81 2.81 0 0 1-.49 0 2 2 0 0 1-.51-.01zM28.66 81.28a1.61 1.61 0 0 1-.48-.08v3.55a.92.92 0 0 0 1 0V81.2a1.61 1.61 0 0 1-.52.08zM36 78v2.71a.92.92 0 0 0 1 0V78a4.41 4.41 0 0 1-.52 0z" fill="#154373"/><text transform="translate(388.85 126.01)" font-size="3.927" fill="#0e4c86" font-family="HelveticaNeueLTStd-Roman,HelveticaNeueLTStd Roman">SM</text><path d="M373.7 94.42H365v9.5h8.7c.8 0 1-.23 1-1v-7.47c.03-.8-.2-1.03-1-1.03z" fill="none"/><path fill="#0e4c86" d="M318.62 125.8h28.17v-8.94h-17.41v-7.15h13.8v-8.82h-13.8v-6.24h17.41v-8.93h-28.17v40.08zM380.06 111.54c3.66-.74 5.44-3.21 5.44-7.62V93.5c0-5.27-2.52-7.78-7.79-7.78h-23.48v40.08H365v-13.4h4.41l6.81 13.4h10.88zm-5.33-8.65c0 .8-.23 1-1 1H365v-9.5h8.7c.8 0 1 .23 1 1z"/></g></svg>