<svg xmlns="http://www.w3.org/2000/svg" viewBox="0 0 610.13 37"><defs><style>.cls-1{fill:#fefefe;}.cls-2{fill:#005ca5;}.cls-3{fill:#c71f3f;}.cls-4{fill:#262a68;}.cls-5{fill:#eca91e;}.cls-6{fill:#e22526;}.cls-7{fill:#4ba294;}.cls-8{fill:#cbd4d9;}.cls-9{fill:#00813d;}.cls-10{fill:#066f63;}.cls-11{fill:#fff;opacity:0.8;}</style></defs><title>trash</title><g id="Layer_1" data-name="Layer 1"><path class="cls-1" d="M287.9,31.15q-151.92,0-303.84,0c-.9,0-1.1-.21-1.1-1.11q0-17.52,0-35c0-.71.14-.87.86-.86,4.16,0,8.32,0,12.48,0q297.84,0,595.68,0c.9,0,1.11.2,1.1,1.1q0,17.4,0,34.8c0,.9-.2,1.11-1.1,1.11Q439.94,31.14,287.9,31.15Zm44.74-6.71a2.93,2.93,0,0,1,.45-.54c1.32-1,1.89-2.13,1-3.71a.92.92,0,0,1,0-.47c.15-1.53.26-1.68,1.6-2.32a.4.4,0,0,0,.18-.16l3.3-5.77h-6.35c-.7,0-.93.24-.43.81.64.72.41,1.26-.15,1.9a8.44,8.44,0,0,0-1.93,6,11.31,11.31,0,0,0,1.31,5c.49,0,.6-.6,1-.71.88,2.22,2.35,4.11,3.48,6.29l1-1.43c5.28,2.61,11.51-.37,13-5.09-1.29,0-2.56,0-3.84,0a1.21,1.21,0,0,0-1,.49,5,5,0,0,1-4.2,1.7c-2-.07-2.06-.07-1.48-1.93Zm-194.4,0a6,6,0,0,1,1-1c1-.67.94-1.55.65-2.53a4.1,4.1,0,0,1,.53-3.47c.07-.12,0-.53.31-.23.67.74.75-.12,1-.36a8.58,8.58,0,0,0,1-1.81c.58-1.15,1.49-2.15,1.75-3.42h-7.19c1.14,1,1.16,1.63.35,2.74-2.12,2.92-2.23,6.21-1,9.57.5,1.41.47,1.42,1.69.53-.15.93.62,1.48,1,2.19.72,1.4,1.59,2.73,2.48,4.23.41-1.36,1.11-1.46,2.18-1.11a9.49,9.49,0,0,0,11.11-4c.25-.38.76-.88.43-1.36s-.81-.12-1.24-.13c-.72,0-1.44,0-2.15,0a1.53,1.53,0,0,0-1.24.52,5.87,5.87,0,0,1-4.95,1.64c-1.38-.14-1.49-.42-.69-1.59,0-.05,0-.15,0-.31Zm92-28.07c-2.68-.51-5.31-.52-7.29,1.67-.94,1-1.72,2-3.3,1.74a2.47,2.47,0,0,0-1.22.43c-1,.47-1.84,1.08-1.88,2.26s.89,1.64,1.8,2c.56.2.58.34.25.81a14.26,14.26,0,0,0-1.41,2.34c-.4.91-.41,1.81.8,2.21,1.86,2.54,4.06,4.57,7.46,4.52,1.08,0,2.11.49,3.17.23a8.06,8.06,0,0,1,5.38.59c2.26,1,3.93,2.81,5.88,4.23,1.66,1.2,1.78,1.29,3.51.25a9.67,9.67,0,0,0,2.34-1.75c2.84-3.25,3.37-7.15,2.9-11.27a1,1,0,0,0-.8-.9,19.79,19.79,0,0,1-5.49-2.2,3,3,0,0,0-3.16-.15,1.94,1.94,0,0,1-2.35-.05,9.24,9.24,0,0,1-1.81-2A11.82,11.82,0,0,0,230.21-3.63Zm193.92,0c-2.44-.61-5-.48-6.74,1.23A7.34,7.34,0,0,1,412.9,0a2.56,2.56,0,0,0-2.41,2.44c0,1.46,1.24,1.84,2.42,2.17-.58,1-1.19,1.91-1.7,2.89-.62,1.19-.38,1.72.91,2.28,0,.15,0,.34.09.44,2,2.19,4,4.29,7.31,4.09,1.11-.07,2.17.47,3.28.2a8,8,0,0,1,6,1c2.16,1.22,3.86,3.05,5.87,4.47a1.27,1.27,0,0,0,1.3.28,12.38,12.38,0,0,0,3.21-1.89c3.24-3,3.65-6.87,3.62-10.89,0-.6,0-1.58-1-1.79a24.25,24.25,0,0,1-5.58-2.28,3.2,3.2,0,0,0-3.06-.1,2.29,2.29,0,0,1-3-.62c-.55-.65-1-1.41-1.48-2.1C427.41-1.08,426.25-2.87,424.13-3.63Zm-388.56,0a6.42,6.42,0,0,0-3.07-.23c-1.6.19-3.28.61-4.22,2A3.27,3.27,0,0,1,25.21-.23,3,3,0,0,0,22.1,2.23c-.11,1.34.4,1.89,2.25,2.41-.51,1.07-1.35,2-1.78,3.08s-.13,1.76,1,2.08c0,.12,0,.28,0,.35,2,2.33,4.2,4.43,7.62,4.19,1-.07,2,.48,2.94.23a8.18,8.18,0,0,1,6.59,1.26C42.67,17,44.27,18.65,46.08,20a1.33,1.33,0,0,0,1.32.28,9.78,9.78,0,0,0,4.66-3.48,15.6,15.6,0,0,0,2.16-9.56,1.43,1.43,0,0,0-1-1.55,16.72,16.72,0,0,1-4.51-1.84A4.53,4.53,0,0,0,44,3.52a2,2,0,0,1-2.3-.62A25.44,25.44,0,0,1,39.62,0C38.52-1.53,37.43-3,35.57-3.63ZM94.15,18.19a8.93,8.93,0,0,0,9-9,8.89,8.89,0,0,0-9-9.16A9,9,0,0,0,85,8.78,9,9,0,0,0,94.15,18.19Zm203.47-9a8.92,8.92,0,0,0-9-9.18c-5.89.15-9.17,4.14-9.15,9.13a9.08,9.08,0,0,0,18.15,0Zm175.92.07a9.08,9.08,0,0,0,18.16-.19c-.1-5.3-3.57-8.9-9.11-9.06A8.93,8.93,0,0,0,473.54,9.25ZM119.48,16.51a7.27,7.27,0,0,0,7.44-7.41c-.1-4.3-2.85-7.34-7.41-7.42A7.36,7.36,0,0,0,112.08,9,7.32,7.32,0,0,0,119.48,16.51Zm201.9-7.26A7.17,7.17,0,0,0,314,1.69c-5,.09-7.37,3.5-7.36,7.53a7.4,7.4,0,0,0,14.79,0Zm193.92,0a7.1,7.1,0,0,0-7.2-7.56,7.38,7.38,0,0,0-7.46,7,7.39,7.39,0,0,0,7.44,7.88C511.77,16.58,515.64,13.25,515.3,9.22ZM201,17a6.25,6.25,0,0,0,6.56-6.42c0-4.42-2.84-6.68-6.68-6.67-3.52,0-6.33,2.35-6.45,6.57A6.41,6.41,0,0,0,201,17ZM0,10.56C-.29,13.83,2.91,17,6.4,17A6.64,6.64,0,0,0,13,10.52,6.44,6.44,0,0,0,6.48,3.86C2.84,3.91-.17,6.43,0,10.56Zm388.56-.17c-.4,3.66,3.1,6.63,6.32,6.64a6.59,6.59,0,0,0,.19-13.17C391.73,3.85,388.4,6.16,388.58,10.39Zm-17,18.15a9.86,9.86,0,0,0,7.9-4.95c.7-1.24.69-1.28-.67-1.55a8.26,8.26,0,0,1-3.87-1.79c-3.38-2.93-5-6.5-3.71-11,.1-.35.1-.78-.35-.61a13.85,13.85,0,0,1-2.1.26A9.86,9.86,0,0,0,361.32,16c-.29.93.16,1.16.84.91a5.14,5.14,0,0,1,3,.05c4.35,1.09,7.38,6.31,5.18,10.5C369.66,28.82,370.68,28.46,371.58,28.54Zm202.5-6.14a1.88,1.88,0,0,0-.3-.12,10.07,10.07,0,0,1-7-4.32c-1.73-2.61-2.64-5.38-1.63-8.54.19-.58.1-1.09-.74-.67a1.43,1.43,0,0,1-.59.08A9.4,9.4,0,0,0,555.27,17a7.72,7.72,0,0,1,8.13,2.83c2.15,2.72,2,5.61.64,8.59A9.71,9.71,0,0,0,574.08,22.4Zm-388.45-.14c-.58.19-.91-.16-1.34-.25a10.38,10.38,0,0,1-7.89-8.32,8.26,8.26,0,0,1,.22-4.16c.15-.47.25-1.29-.78-.77a1.28,1.28,0,0,1-.59.07c-3.81.1-7.64,3.69-8.46,7.22-.24,1,.12,1.11.84.93a6.57,6.57,0,0,1,5.79,1.41A7.34,7.34,0,0,1,176.47,25a12.21,12.21,0,0,1-1,3.43A9.92,9.92,0,0,0,185.63,22.26Zm84.87-1.63a6.36,6.36,0,1,0-12.71-.13,6.36,6.36,0,1,0,12.71.13ZM69.78,27.07c3.69-.31,6.33-2.9,6.26-6.55a6.42,6.42,0,1,0-12.83.2C63.24,24.4,65.92,26.88,69.78,27.07Zm388.48,0a6.38,6.38,0,0,0,6.33-6.48,6.41,6.41,0,1,0-12.82.1C451.83,24.48,454.29,26.76,458.26,27.07Zm75.4-2.64c-1.37,0-2.72,0-4.07,0-.9,0-2.27-.4-2.61.17-.48.82.61,1.73,1.1,2.52a16.7,16.7,0,0,0,2.23,3.54c.34-.68.52-1.6,1.5-1.09a7.4,7.4,0,0,0,4,.6A9.14,9.14,0,0,0,543.91,25c.34-.64.24-.85-.48-.83s-1.52,0-2.28,0a2.58,2.58,0,0,0-2,.72,5.59,5.59,0,0,1-4.08,1.47C533.11,26.28,533,26.23,533.66,24.43Zm9.1-.48c1.26-2.22,2.38-4.17,3.46-6.08-.53-.49-1.36.38-1.69-.7A8.82,8.82,0,0,0,541,12.34a10.42,10.42,0,0,0-6.64-1.81c-.85.05-1.42.4-.76,1.39a5.17,5.17,0,0,1,.72,1.45c.2.72.54.93,1.3,1a5.46,5.46,0,0,1,4.73,3.1c0,.05,0,.12,0,.18-.34.14-.73-.1-1.1.24ZM345.13,17.72c1.21,2.07,2.37,4.05,3.59,6.15,1.17-1.93,2.26-3.7,3.3-5.5.3-.52,0-.74-.55-.65a.82.82,0,0,1-1-.69c-1.27-4.26-6.42-7.64-11.23-6.15.38.85.78,1.69,1.13,2.55a1.42,1.42,0,0,0,1.4,1,5.87,5.87,0,0,1,4.78,3.33Zm-187.42.18c-.54-.52-1.43.34-1.68-.6-1.23-4.74-6.84-7.87-11.26-6.39a18.31,18.31,0,0,0,1.13,2.66,1.17,1.17,0,0,0,1.2.81c2,.17,4.34,1.44,4.75,3.27-.34.18-.78-.09-1.13.24,1.15,2,2.27,3.9,3.49,6Zm367.93,7.32c.9-.8,1.68-1.53,2.5-2.21a1.09,1.09,0,0,0,.38-1.39,5.89,5.89,0,0,1,.06-3.8c.07-.24.26-.93.56-.68.83.68.81,0,1.06-.47a24.5,24.5,0,0,0,1.39-2.29c.43-1,1.26-1.74,1.43-2.85H526c.69,1,1.14,1.72.2,2.91C523.54,17.75,524.14,21.41,525.64,25.22ZM364.9,4.1a6,6,0,0,0-1.59,2.29c-.39.89.83,3.44,1.7,3.62a.44.44,0,0,0,.22,0,3,3,0,0,0,1.21-3.43C365.94,5.72,365.43,4.92,364.9,4.1Zm194,0A5.11,5.11,0,0,0,557.55,6a3.53,3.53,0,0,0,1.29,4,.44.44,0,0,0,.32,0c.89-.33,1.84-2.45,1.4-3.23S559.46,5,558.89,4.05ZM170.27,4l-.33.5c-1.85,2.76-1.84,2.87.24,5.28.11.13.17.22.36.17.82-.2,2-2.46,1.48-3.19A13.5,13.5,0,0,0,170.27,4Z" transform="translate(17.04 5.83)"/><path class="cls-2" d="M35.57-3.63c1.86.62,3,2.1,4,3.58a25.44,25.44,0,0,0,2.1,2.95,2,2,0,0,0,2.3.62,4.53,4.53,0,0,1,4.67.35A16.72,16.72,0,0,0,53.2,5.71a1.43,1.43,0,0,1,1,1.55,15.6,15.6,0,0,1-2.16,9.56A9.78,9.78,0,0,1,47.4,20.3,1.33,1.33,0,0,1,46.08,20c-1.81-1.37-3.41-3-5.35-4.19a8.18,8.18,0,0,0-6.59-1.26c-1,.25-1.94-.3-2.94-.23-3.42.24-5.6-1.86-7.62-4.19-.06-.07,0-.23,0-.35a7.46,7.46,0,0,0,1.5.25,15.06,15.06,0,0,0,8.33-3.32c.19-.08.44,0,.53-.29a4.34,4.34,0,0,0,1.15-1.15c.35-.33.72-.63,1-1,1.86-2.13,2.08-5,.16-6.76C36.51-3.14,35.41-3,35.57-3.63ZM30.22,10.88l2.82.81c4.5,1.24,8.59,3.41,12.71,5.51,1.15.58,2.26,1.46,3.57.15.38-.37,1.15-.38,1.09-1.15-.07-.93-1-.6-1.46-.88a1.22,1.22,0,0,0-.47,0,8.38,8.38,0,0,1-4.92-1.23,4.18,4.18,0,0,0-1.17-.48A17.21,17.21,0,0,1,39,12.43c-1.78-1-2.34-2.74-3-4.47-.27-.72-.46-1.09-1.28-.43C33.34,8.68,31.82,9.7,30.22,10.88Z" transform="translate(17.04 5.83)"/><path class="cls-2" d="M424.13-3.63c2.12.76,3.28,2.55,4.52,4.25.51.69.93,1.45,1.48,2.1a2.29,2.29,0,0,0,3,.62,3.2,3.2,0,0,1,3.06.1,24.25,24.25,0,0,0,5.58,2.28c1,.21,1,1.19,1,1.79,0,4-.38,7.93-3.62,10.89a12.38,12.38,0,0,1-3.21,1.89,1.27,1.27,0,0,1-1.3-.28c-2-1.42-3.71-3.25-5.87-4.47a8,8,0,0,0-6-1c-1.11.27-2.17-.27-3.28-.2-3.29.2-5.34-1.9-7.31-4.09-.09-.1-.06-.29-.09-.44a6,6,0,0,0,3.59,0,16.42,16.42,0,0,0,6.48-3.3c.19-.08.44,0,.53-.29l.67-.67c.43-.41.9-.79,1.29-1.24,1.77-2.09,2.15-4.76.15-6.75C424.7-2.91,424-3,424.13-3.63Zm-5.34,14.46a2.67,2.67,0,0,0,.7.37,36.79,36.79,0,0,1,8.35,2.86c2.68,1.17,5.25,2.56,7.88,3.82.29.15.7.55.95.24a4.2,4.2,0,0,1,1.78-1,.9.9,0,0,0,.53-1c-.06-.45-.38-.49-.72-.64a3.53,3.53,0,0,0-1.39-.2,8.12,8.12,0,0,1-4.68-1.2,4.82,4.82,0,0,0-1.29-.51c-1.69-.53-3.54-.75-4.74-2.33a18.42,18.42,0,0,1-1.77-3.66c-.23-.47-.4-.59-.74-.34C422,8.42,420.45,9.61,418.79,10.83Z" transform="translate(17.04 5.83)"/><path class="cls-2" d="M230.21-3.63A11.82,11.82,0,0,1,235,1.27a9.24,9.24,0,0,0,1.81,2,1.94,1.94,0,0,0,2.35.05,3,3,0,0,1,3.16.15,19.79,19.79,0,0,0,5.49,2.2,1,1,0,0,1,.8.9c.47,4.12-.06,8-2.9,11.27a9.67,9.67,0,0,1-2.34,1.75c-1.73,1-1.85.95-3.51-.25-1.95-1.42-3.62-3.23-5.88-4.23a8.06,8.06,0,0,0-5.38-.59c-1.06.26-2.09-.25-3.17-.23-3.4,0-5.6-2-7.46-4.52a7.18,7.18,0,0,0,3.71,0,15.63,15.63,0,0,0,6.83-3.58c.21,0,.44,0,.54-.25l.19-.19c.35-.32.71-.64,1-1,2.18-2.37,2.55-5.19.64-7.19C230.69-2.82,230.16-3.06,230.21-3.63Zm14.85,20.07c0-.61-.84-1.12-1.78-1.12a9,9,0,0,1-4.75-1,7.34,7.34,0,0,0-2.26-.89c-2.57-.55-4.55-1.74-5.31-4.43-.11-.37-.27-.73-.4-1.1-.25-.72-.67-.88-1.3-.4-1.22.9-2.46,1.79-3.67,2.71a4.68,4.68,0,0,0-.6.72,6.94,6.94,0,0,0,.87.31,39.8,39.8,0,0,1,6.28,2.07c3.33,1.42,6.58,3,9.81,4.65.21.1.47.44.72.1.45-.64,1.24-.62,1.82-1C244.77,16.85,245.05,16.75,245.06,16.44Z" transform="translate(17.04 5.83)"/><path class="cls-3" d="M94.15,18.19A9,9,0,0,1,85,8.78,9,9,0,0,1,94.14,0a8.89,8.89,0,0,1,9,9.16A8.93,8.93,0,0,1,94.15,18.19Z" transform="translate(17.04 5.83)"/><path class="cls-3" d="M297.62,9.18a9.08,9.08,0,0,1-18.15,0c0-5,3.26-9,9.15-9.13A8.92,8.92,0,0,1,297.62,9.18Z" transform="translate(17.04 5.83)"/><path class="cls-3" d="M473.54,9.25a8.93,8.93,0,0,1,9-9.25c5.54.16,9,3.76,9.11,9.06a9.08,9.08,0,0,1-18.16.19Z" transform="translate(17.04 5.83)"/><path class="cls-4" d="M119.48,16.51A7.32,7.32,0,0,1,112.08,9a7.36,7.36,0,0,1,7.43-7.32c4.56.08,7.31,3.12,7.41,7.42A7.27,7.27,0,0,1,119.48,16.51Z" transform="translate(17.04 5.83)"/><path class="cls-4" d="M321.38,9.25a7.4,7.4,0,0,1-14.79,0c0-4,2.39-7.44,7.36-7.53A7.17,7.17,0,0,1,321.38,9.25Z" transform="translate(17.04 5.83)"/><path class="cls-4" d="M515.3,9.22c.34,4-3.53,7.36-7.22,7.32a7.39,7.39,0,0,1-7.44-7.88,7.38,7.38,0,0,1,7.46-7A7.1,7.1,0,0,1,515.3,9.22Z" transform="translate(17.04 5.83)"/><path class="cls-5" d="M201,17a6.41,6.41,0,0,1-6.57-6.52c.12-4.22,2.93-6.57,6.45-6.57,3.84,0,6.64,2.25,6.68,6.67A6.25,6.25,0,0,1,201,17Z" transform="translate(17.04 5.83)"/><path class="cls-5" d="M0,10.56c-.19-4.13,2.82-6.65,6.46-6.7A6.44,6.44,0,0,1,13,10.52,6.64,6.64,0,0,1,6.4,17C2.91,17-.29,13.83,0,10.56Z" transform="translate(17.04 5.83)"/><path class="cls-5" d="M388.58,10.39c-.18-4.23,3.15-6.54,6.51-6.53A6.59,6.59,0,0,1,394.9,17C391.68,17,388.18,14.05,388.58,10.39Z" transform="translate(17.04 5.83)"/><path class="cls-6" d="M371.58,28.54c-.9-.08-1.92.28-1.23-1,2.2-4.19-.83-9.41-5.18-10.5a5.14,5.14,0,0,0-3-.05c-.68.25-1.13,0-.84-.91a9.86,9.86,0,0,1,7.46-7.15,13.85,13.85,0,0,0,2.1-.26c.45-.17.45.26.35.61-1.28,4.51.33,8.08,3.71,11A8.26,8.26,0,0,0,378.81,22c1.36.27,1.37.31.67,1.55A9.86,9.86,0,0,1,371.58,28.54Z" transform="translate(17.04 5.83)"/><path class="cls-6" d="M574.08,22.4a9.71,9.71,0,0,1-10,6c1.34-3,1.51-5.87-.64-8.59A7.72,7.72,0,0,0,555.27,17a9.4,9.4,0,0,1,8.56-8.17,1.43,1.43,0,0,0,.59-.08c.84-.42.93.09.74.67-1,3.16-.1,5.93,1.63,8.54a10.07,10.07,0,0,0,7,4.32A1.88,1.88,0,0,1,574.08,22.4Z" transform="translate(17.04 5.83)"/><path class="cls-6" d="M185.63,22.26a9.92,9.92,0,0,1-10.16,6.19,12.21,12.21,0,0,0,1-3.43,7.34,7.34,0,0,0-3.05-6.63A6.57,6.57,0,0,0,167.63,17c-.72.18-1.08.08-.84-.93.82-3.53,4.65-7.12,8.46-7.22a1.28,1.28,0,0,0,.59-.07c1-.52.93.3.78.77a8.26,8.26,0,0,0-.22,4.16A10.38,10.38,0,0,0,184.29,22C184.72,22.1,185.05,22.45,185.63,22.26Z" transform="translate(17.04 5.83)"/><path class="cls-7" d="M270.5,20.63a6.36,6.36,0,1,1-12.71-.13,6.36,6.36,0,1,1,12.71.13Z" transform="translate(17.04 5.83)"/><path class="cls-7" d="M69.78,27.07c-3.86-.19-6.54-2.67-6.57-6.35A6.42,6.42,0,1,1,76,20.52C76.11,24.17,73.47,26.76,69.78,27.07Z" transform="translate(17.04 5.83)"/><path class="cls-7" d="M458.26,27.07c-4-.31-6.43-2.59-6.49-6.38a6.41,6.41,0,1,1,12.82-.1A6.38,6.38,0,0,1,458.26,27.07Z" transform="translate(17.04 5.83)"/><path class="cls-8" d="M423.39,5.53l-.67.67a.43.43,0,0,0-.53.29,16.42,16.42,0,0,1-6.48,3.3,6,6,0,0,1-3.59,0c-1.29-.56-1.53-1.09-.91-2.28.51-1,1.12-1.91,1.7-2.89-1.18-.33-2.46-.71-2.42-2.17A2.56,2.56,0,0,1,412.9,0a7.34,7.34,0,0,0,4.49-2.42c1.78-1.71,4.3-1.84,6.74-1.23-.12.6.57.72.7,1.17.33,2.57.44,5.11-1.34,7.31C423.36,5,423.42,5.3,423.39,5.53ZM421,3.34a3.34,3.34,0,0,0,2.37-.62,1.58,1.58,0,0,0,.76-1.4,1.25,1.25,0,0,0-1-1.16,4.14,4.14,0,0,0-3.84.49,1.5,1.5,0,0,0-.61,1.56,1.31,1.31,0,0,0,1.06,1A6.07,6.07,0,0,0,421,3.34Z" transform="translate(17.04 5.83)"/><path class="cls-8" d="M33.39,6.73a15.06,15.06,0,0,1-8.33,3.32,7.46,7.46,0,0,1-1.5-.25c-1.12-.32-1.41-1-1-2.08s1.27-2,1.78-3.08C22.5,4.12,22,3.57,22.1,2.23A3,3,0,0,1,25.21-.23,3.27,3.27,0,0,0,28.28-1.9c.94-1.35,2.62-1.77,4.22-2a6.42,6.42,0,0,1,3.07.23c-.16.63.94.49.7,1.17a9.37,9.37,0,0,1-1.15,7.17c-.09.14,0,.39,0,.58a4.34,4.34,0,0,1-1.15,1.15A.43.43,0,0,0,33.39,6.73Zm-.92-3.42A3.06,3.06,0,0,0,35,2.52,1.35,1.35,0,0,0,34.62.14a4.24,4.24,0,0,0-3.86.44,1.47,1.47,0,0,0,.76,2.73C31.8,3.33,32.08,3.31,32.47,3.31Z" transform="translate(17.04 5.83)"/><path class="cls-8" d="M228.5,6.21a15.63,15.63,0,0,1-6.83,3.58,7.18,7.18,0,0,1-3.71,0c-1.21-.4-1.2-1.3-.8-2.21a14.26,14.26,0,0,1,1.41-2.34c.33-.47.31-.61-.25-.81-.91-.33-1.84-.79-1.8-2S217.44.68,218.4.21a2.47,2.47,0,0,1,1.22-.43C221.2,0,222-.92,222.92-2c2-2.19,4.61-2.18,7.29-1.67-.05.57.48.81.7,1.22,0,.52,0,1,0,1.56.09,2.14,0,4.22-1.58,5.94-.13.14-.07.45-.1.68L229,6A.45.45,0,0,0,228.5,6.21ZM227,3.31v0a4.3,4.3,0,0,0,1.19,0c.87-.28,1.75-.67,1.9-1.72A1.34,1.34,0,0,0,229,.09a4.4,4.4,0,0,0-3.25.23,1.63,1.63,0,0,0-1,2c.24.8.92,1,1.69,1Z" transform="translate(17.04 5.83)"/><path class="cls-9" d="M533.66,24.43c-.64,1.8-.55,1.85,1.4,1.94a5.59,5.59,0,0,0,4.08-1.47,2.58,2.58,0,0,1,2-.72c.76,0,1.52,0,2.28,0s.82.19.48.83a9.14,9.14,0,0,1-8.07,5.16,7.4,7.4,0,0,1-4-.6c-1-.51-1.16.41-1.5,1.09a16.7,16.7,0,0,1-2.23-3.54c-.49-.79-1.58-1.7-1.1-2.52.34-.57,1.71-.15,2.61-.17C530.94,24.41,532.29,24.43,533.66,24.43Z" transform="translate(17.04 5.83)"/><path class="cls-9" d="M138.24,24.44h6.9c0,.16.07.26,0,.31-.8,1.17-.69,1.45.69,1.59a5.87,5.87,0,0,0,4.95-1.64,1.53,1.53,0,0,1,1.24-.52c.71.05,1.43,0,2.15,0,.43,0,1-.22,1.24.13s-.18,1-.43,1.36a9.49,9.49,0,0,1-11.11,4c-1.07-.35-1.77-.25-2.18,1.11-.89-1.5-1.76-2.83-2.48-4.23-.36-.71-1.13-1.26-1-2.19Z" transform="translate(17.04 5.83)"/><path class="cls-9" d="M332.64,24.44h6.94c-.58,1.86-.54,1.86,1.48,1.93a5,5,0,0,0,4.2-1.7,1.21,1.21,0,0,1,1-.49c1.28,0,2.55,0,3.84,0-1.47,4.72-7.7,7.7-13,5.09l-1,1.43c-1.13-2.18-2.6-4.07-3.48-6.29Z" transform="translate(17.04 5.83)"/><path class="cls-9" d="M542.76,24l-3.5-6c.37-.34.76-.1,1.1-.24,0-.06,0-.13,0-.18a5.46,5.46,0,0,0-4.73-3.1c-.76-.09-1.1-.3-1.3-1a5.17,5.17,0,0,0-.72-1.45c-.66-1-.09-1.34.76-1.39A10.42,10.42,0,0,1,541,12.34a8.82,8.82,0,0,1,3.51,4.83c.33,1.08,1.16.21,1.69.7C545.14,19.78,544,21.73,542.76,24Z" transform="translate(17.04 5.83)"/><path class="cls-9" d="M345.13,17.72h1.39a5.87,5.87,0,0,0-4.78-3.33,1.42,1.42,0,0,1-1.4-1c-.35-.86-.75-1.7-1.13-2.55,4.81-1.49,10,1.89,11.23,6.15a.82.82,0,0,0,1,.69c.5-.09.85.13.55.65-1,1.8-2.13,3.57-3.3,5.5C347.5,21.77,346.34,19.79,345.13,17.72Z" transform="translate(17.04 5.83)"/><path class="cls-9" d="M157.71,17.9l-3.5,6c-1.22-2.11-2.34-4-3.49-6,.35-.33.79-.06,1.13-.24-.41-1.83-2.74-3.1-4.75-3.27a1.17,1.17,0,0,1-1.2-.81,18.31,18.31,0,0,1-1.13-2.66c4.42-1.48,10,1.65,11.26,6.39C156.28,18.24,157.17,17.38,157.71,17.9Z" transform="translate(17.04 5.83)"/><path class="cls-9" d="M138.27,24.42c-1.22.89-1.19.88-1.69-.53-1.2-3.36-1.09-6.65,1-9.57.81-1.11.79-1.76-.35-2.74h7.19c-.26,1.27-1.17,2.27-1.75,3.42a8.58,8.58,0,0,1-1,1.81c-.22.24-.3,1.1-1,.36-.28-.3-.24.11-.31.23a4.1,4.1,0,0,0-.53,3.47c.29,1,.37,1.86-.65,2.53a6,6,0,0,0-1,1Z" transform="translate(17.04 5.83)"/><path class="cls-9" d="M525.64,25.22c-1.5-3.81-2.1-7.47.51-10.78.94-1.19.49-1.91-.2-2.91H533c-.17,1.11-1,1.88-1.43,2.85a24.5,24.5,0,0,1-1.39,2.29c-.25.43-.23,1.15-1.06.47-.3-.25-.49.44-.56.68a5.89,5.89,0,0,0-.06,3.8,1.09,1.09,0,0,1-.38,1.39C527.32,23.69,526.54,24.42,525.64,25.22Z" transform="translate(17.04 5.83)"/><path class="cls-9" d="M332.67,24.42c-.43.11-.54.68-1,.71a11.31,11.31,0,0,1-1.31-5,8.44,8.44,0,0,1,1.93-6c.56-.64.79-1.18.15-1.9-.5-.57-.27-.82.43-.81h6.35l-3.3,5.77a.4.4,0,0,1-.18.16c-1.34.64-1.45.79-1.6,2.32a.92.92,0,0,0,0,.47c.85,1.58.28,2.74-1,3.71a2.93,2.93,0,0,0-.45.54Z" transform="translate(17.04 5.83)"/><path class="cls-10" d="M364.9,4.1c.53.82,1,1.62,1.54,2.43A3,3,0,0,1,365.23,10a.44.44,0,0,1-.22,0c-.87-.18-2.09-2.73-1.7-3.62A6,6,0,0,1,364.9,4.1Z" transform="translate(17.04 5.83)"/><path class="cls-10" d="M558.89,4.05c.57.9,1.17,1.76,1.67,2.67s-.51,2.9-1.4,3.23a.44.44,0,0,1-.32,0,3.53,3.53,0,0,1-1.29-4A5.11,5.11,0,0,1,558.89,4.05Z" transform="translate(17.04 5.83)"/><path class="cls-10" d="M170.27,4A13.5,13.5,0,0,1,172,6.8c.49.73-.66,3-1.48,3.19-.19,0-.25,0-.36-.17-2.08-2.41-2.09-2.52-.24-5.28Z" transform="translate(17.04 5.83)"/><path class="cls-1" d="M30.22,10.88c1.6-1.18,3.12-2.2,4.53-3.35.82-.66,1-.29,1.28.43.63,1.73,1.19,3.49,3,4.47a17.21,17.21,0,0,0,3.39,1.17,4.18,4.18,0,0,1,1.17.48,8.38,8.38,0,0,0,4.92,1.23,1.22,1.22,0,0,1,.47,0c.5.28,1.39-.05,1.46.88.06.77-.71.78-1.09,1.15-1.31,1.31-2.42.43-3.57-.15-4.12-2.1-8.21-4.27-12.71-5.51Z" transform="translate(17.04 5.83)"/><path class="cls-1" d="M35.07,5.29c0-.19,0-.44,0-.58a9.37,9.37,0,0,0,1.15-7.17C38.19-.72,38,2.17,36.11,4.3,35.79,4.66,35.42,5,35.07,5.29Z" transform="translate(17.04 5.83)"/><path class="cls-1" d="M33.39,6.73a.43.43,0,0,1,.53-.29C33.83,6.69,33.58,6.65,33.39,6.73Z" transform="translate(17.04 5.83)"/><path class="cls-1" d="M418.79,10.83c1.66-1.22,3.25-2.41,4.86-3.56.34-.25.51-.13.74.34a18.42,18.42,0,0,0,1.77,3.66c1.2,1.58,3,1.8,4.74,2.33a4.82,4.82,0,0,1,1.29.51,8.12,8.12,0,0,0,4.68,1.2,3.53,3.53,0,0,1,1.39.2c.34.15.66.19.72.64a.9.9,0,0,1-.53,1,4.2,4.2,0,0,0-1.78,1c-.25.31-.66-.09-.95-.24-2.63-1.26-5.2-2.65-7.88-3.82a36.79,36.79,0,0,0-8.35-2.86A2.67,2.67,0,0,1,418.79,10.83Z" transform="translate(17.04 5.83)"/><path class="cls-1" d="M423.39,5.53c0-.23,0-.53.1-.68,1.78-2.2,1.67-4.74,1.34-7.31,2,2,1.62,4.66-.15,6.75C424.29,4.74,423.82,5.12,423.39,5.53Z" transform="translate(17.04 5.83)"/><path class="cls-1" d="M422.19,6.49a.43.43,0,0,1,.53-.29C422.63,6.45,422.38,6.41,422.19,6.49Z" transform="translate(17.04 5.83)"/><path class="cls-1" d="M245.06,16.44c0,.31-.29.41-.57.59-.58.4-1.37.38-1.82,1-.25.34-.51,0-.72-.1-3.23-1.63-6.48-3.23-9.81-4.65a39.8,39.8,0,0,0-6.28-2.07,6.94,6.94,0,0,1-.87-.31,4.68,4.68,0,0,1,.6-.72c1.21-.92,2.45-1.81,3.67-2.71.63-.48,1.05-.32,1.3.4.13.37.29.73.4,1.1.76,2.69,2.74,3.88,5.31,4.43a7.34,7.34,0,0,1,2.26.89,9,9,0,0,0,4.75,1C244.22,15.32,245,15.83,245.06,16.44Z" transform="translate(17.04 5.83)"/><path class="cls-1" d="M229.23,5.77c0-.23,0-.54.1-.68,1.55-1.72,1.67-3.8,1.58-5.94,0-.52,0-1,0-1.56,1.91,2,1.54,4.82-.64,7.19C229.94,5.13,229.58,5.45,229.23,5.77Z" transform="translate(17.04 5.83)"/><path class="cls-1" d="M228.5,6.21A.45.45,0,0,1,229,6C228.94,6.21,228.71,6.19,228.5,6.21Z" transform="translate(17.04 5.83)"/><path class="cls-1" d="M421,3.34a6.07,6.07,0,0,1-1.29-.12,1.31,1.31,0,0,1-1.06-1,1.5,1.5,0,0,1,.61-1.56,4.14,4.14,0,0,1,3.84-.49,1.25,1.25,0,0,1,1,1.16,1.58,1.58,0,0,1-.76,1.4A3.34,3.34,0,0,1,421,3.34Z" transform="translate(17.04 5.83)"/><path class="cls-1" d="M32.47,3.31c-.39,0-.67,0-.95,0A1.47,1.47,0,0,1,30.76.58,4.24,4.24,0,0,1,34.62.14,1.35,1.35,0,0,1,35,2.52,3.06,3.06,0,0,1,32.47,3.31Z" transform="translate(17.04 5.83)"/><path class="cls-1" d="M227,3.31h-.59c-.77,0-1.45-.24-1.69-1a1.63,1.63,0,0,1,1-1.95A4.4,4.4,0,0,1,229,.09a1.34,1.34,0,0,1,1.12,1.47c-.15,1-1,1.44-1.9,1.72a4.3,4.3,0,0,1-1.19,0Z" transform="translate(17.04 5.83)"/></g><g id="Layer_2" data-name="Layer 2"><rect class="cls-11" y="0.86" width="609.02" height="36.14"/></g></svg>