<?xml version="1.0" encoding="utf-8"?>
<!-- Generator: Adobe Illustrator 26.0.2, SVG Export Plug-In . SVG Version: 6.00 Build 0)  -->
<svg version="1.1" id="Layer_2_00000100383667600013510440000015337217382333829273_"
	 xmlns="http://www.w3.org/2000/svg" xmlns:xlink="http://www.w3.org/1999/xlink" x="0px" y="0px" viewBox="0 0 35 35"
	 style="enable-background:new 0 0 35 35;" xml:space="preserve">
<style type="text/css">
	.st0{fill:#ED1B24;}
	.st1{fill:none;}
</style>
<path class="st0" d="M2.8,29.4h1.4v4.3h2.6v1.2h-4V29.4z"/>
<path class="st0" d="M7.1,29.4h4.4v1.2h-3v1h2.7v1.1H8.5v1.1h3v1.2H7.1V29.4z"/>
<path class="st0" d="M13.4,29.4h1.5l2.1,5.5h-1.5l-0.3-1h-1.9l-0.3,1h-1.5L13.4,29.4z M13.5,32.8h1.3l-0.6-1.9l0,0L13.5,32.8z"/>
<path class="st0" d="M22,34.9h-0.9L21,34.3C20.6,34.7,20,35,19.4,35c-1.7,0-2.8-1.3-2.8-2.9c0-1.6,1.1-2.9,2.8-2.9
	c1.1,0,2.4,0.6,2.5,2h-1.4c0-0.5-0.5-0.8-1.1-0.8c-0.9,0-1.3,0.8-1.3,1.6c0,0.8,0.4,1.6,1.3,1.6c0.7,0,1.2-0.3,1.3-0.8h-1v-1.1H22
	V34.9z"/>
<path class="st0" d="M27.2,32.6c0,1.6-0.7,2.4-2.4,2.4c-1.7,0-2.4-0.8-2.4-2.4v-3.2h1.4v3.3c0,0.7,0.3,1.1,1,1.1c0.7,0,1-0.4,1-1.1
	v-3.3h1.4L27.2,32.6z"/>
<path class="st0" d="M27.7,29.4h4.4v1.2h-2.9v1h2.7v1.1h-2.7v1.1h3v1.2h-4.5V29.4z"/>
<path class="st0" d="M7.1,22.3h1.4v4.3h2.6v1.2h-4V22.3z"/>
<path class="st0" d="M11.3,22.3h4.4v1.2h-3v1h2.7v1.1h-2.7v1.1h3v1.2h-4.5V22.3z"/>
<path class="st0" d="M21.2,27.8h-0.9l-0.1-0.6c-0.4,0.5-0.9,0.7-1.5,0.7c-1.7,0-2.8-1.3-2.8-2.9c0-1.6,1.1-2.9,2.8-2.9
	c1.1,0,2.4,0.6,2.5,2h-1.4c0-0.5-0.5-0.8-1.1-0.8c-0.9,0-1.3,0.8-1.3,1.6c0,0.8,0.4,1.6,1.3,1.6c0.7,0,1.2-0.3,1.3-0.8h-1v-1.1h2.3
	V27.8z"/>
<path class="st0" d="M24.2,22.2c1.7,0,2.7,1.3,2.7,2.9s-1,2.9-2.7,2.9c-1.7,0-2.7-1.3-2.7-2.9S22.5,22.2,24.2,22.2z M24.2,26.7
	c0.9,0,1.3-0.8,1.3-1.6s-0.4-1.6-1.3-1.6s-1.3,0.8-1.3,1.6C22.9,25.9,23.3,26.7,24.2,26.7z"/>
<path class="st0" d="M27.4,22.3c0.3,0,0.6,0.2,0.6,0.6c0,0.3-0.2,0.6-0.6,0.6c-0.3,0-0.6-0.2-0.6-0.6c0,0,0,0,0,0
	C26.8,22.6,27.1,22.3,27.4,22.3L27.4,22.3z M27.4,23.4c0.3,0,0.5-0.2,0.5-0.5c0-0.3-0.2-0.5-0.5-0.5c-0.3,0-0.5,0.2-0.5,0.5
	C26.9,23.1,27.1,23.4,27.4,23.4C27.4,23.4,27.4,23.4,27.4,23.4z M27.2,22.6L27.2,22.6h0.2c0.2,0,0.3,0.1,0.3,0.2
	c0,0.1,0,0.1-0.1,0.2l0,0l0,0c0.1,0.1,0.1,0.1,0.1,0.2h-0.2c0-0.1-0.1-0.1-0.1-0.2v0.2h-0.2L27.2,22.6z M27.4,22.8
	C27.4,22.8,27.5,22.8,27.4,22.8c0.1-0.1,0.1-0.1,0-0.1h0L27.4,22.8L27.4,22.8z"/>
<path class="st0" d="M9.6,9.3l-0.2,0.8L11,9.4c-0.1-0.2-0.2-0.4-0.2-0.7L9.6,9.3z"/>
<line class="st1" x1="9.6" y1="9.3" x2="9.6" y2="9.3"/>
<path class="st0" d="M28.9,6.2L28.9,6.2L22.4,0l-2.2,2.3c-1.1-0.4-2.2-0.6-3.4-0.6c-1.5,0-3,0.4-4.3,1.2L9.5,0l0,0l0,0L8.4,0.1
	L6.1,13l1.1,0.1l0,0l5-2.2l0,0c1.2,1,3,1.7,4.9,1.7c1.3,0,2.5-0.3,3.7-0.9l2,1.9l6.2-6.5V6.2L28.9,6.2z M16.8,1.9
	c1.1,0,2.2,0.2,3.3,0.6l0,0l-1,1l0,0c-0.6-0.2-1.3-0.3-2-0.3c-1.1,0-2.3,0.3-3.2,0.9l0,0l-1-1l-0.1-0.1C14,2.3,15.4,1.9,16.8,1.9z
	 M18.2,4.5l-1.9,2l-1.7-1.6c0.8-0.3,1.6-0.5,2.4-0.5C17.4,4.4,17.8,4.4,18.2,4.5z M7.2,12.8L9.5,0.2l3.2,3.1l1,1L14.5,5l1.8,1.8v0.8
	l0.8,0.7l-2.4,1.1c-0.5-0.2-1-0.5-1.4-0.9l0,0l1.9-0.9l-4.4-4.1l-0.1-0.1l-0.1,0.6l-1,5.4l-0.2,0.8l0.3-0.1l0,0L11,9.5
	c0.2,0.5,0.5,0.9,0.9,1.3L7.2,12.8z M17.5,8.7l1.1,1c-0.5,0.1-1,0.2-1.5,0.2c-0.6,0-1.3-0.1-1.9-0.3l-0.3-0.1l2.3-1.1L17.5,8.7z
	 M12.8,8L12.8,8c-0.2-0.3-0.3-0.5-0.4-0.8c0,0,0-0.1,0-0.1c0.1-0.3,0.2-0.5,0.3-0.8L14,7.5L12.8,8z M10.5,7.4
	C10.5,7.4,10.5,7.4,10.5,7.4c0,0.1,0,0.1,0,0.1c0,0.5,0.1,0.9,0.3,1.3l0,0l-1,0.4l1-5l0.4,0.4c-0.4,0.6-0.7,1.4-0.7,2.1
	C10.4,7,10.5,7.2,10.5,7.4L10.5,7.4z M20.6,10.6c-0.2,0.1-0.5,0.2-0.7,0.3C19,11.3,18,11.4,17,11.4c-1.4,0-2.7-0.3-3.9-1
	c-0.6-0.3-1.1-0.8-1.5-1.3c-0.2-0.2-0.3-0.4-0.4-0.6c-0.2-0.4-0.4-0.8-0.5-1.3c0-0.2,0-0.4,0-0.6c0-0.7,0.2-1.4,0.6-1.9l1,1
	c-0.1,0.2-0.1,0.5-0.1,0.7c0,0.2,0,0.4,0.1,0.6c0.1,0.3,0.2,0.6,0.4,0.8c0.1,0.2,0.3,0.4,0.5,0.6c0.6,0.5,1.3,0.9,2,1.2
	c0.6,0.2,1.3,0.3,1.9,0.3c0.5,0,1.1-0.1,1.6-0.2c0.3-0.1,0.6-0.2,0.8-0.3C20,9.4,20.6,9,21,8.6c0.4-0.4,0.7-0.9,0.8-1.4
	c0-0.2,0.1-0.4,0.1-0.6c0-0.6-0.2-1.2-0.6-1.7L22.2,4c0.7,0.8,1.2,1.8,1.2,2.8c0,0.2,0,0.4,0,0.6c-0.2,0.9-0.6,1.7-1.3,2.3
	C21.7,10,21.2,10.4,20.6,10.6z M20.9,8.4l-1.5-1.5l1.3-1.4c0.4,0.4,0.8,0.8,1,1.4c0,0.1,0,0.2,0,0.2C21.5,7.6,21.2,8,20.9,8.4z
	 M23.6,7.3c0-0.2,0-0.4,0-0.6c0-1.1-0.5-2.2-1.3-3l0.2-0.2l3.2,3.1l-2.7,2.8C23.4,8.8,23.5,8.1,23.6,7.3C23.6,7.4,23.6,7.3,23.6,7.3
	z M22.8,12.7l-1.3-1.3c0.5-0.3,0.9-0.8,1.3-1.2v0l3.2-3.3L26,6.7l0.4-0.4l-3.9-3.8l-0.9,0.9l-1,1L20,5.1l-1.2,1.3l0,0l-0.1,0.1
	L19,6.9l1.7,1.6c-0.4,0.4-0.9,0.7-1.4,0.9l0,0l-1.1-1.1l-1.1-1.1l-0.7-0.7l1.8-1.8l0.9-0.9l1-1l2.4-2.5l6.3,6.1L22.8,12.7z"/>
<path class="st0" d="M6.2,14.6h4.4l-0.4,1.7H8.1l-0.2,0.9h2.2l-0.4,1.6H7.5L7,21H4.7L6.2,14.6z"/>
<path class="st0" d="M11.2,14.6h2.3L12,21H9.7L11.2,14.6z"/>
<path class="st0" d="M14.1,14.6l0.1,0c0.7-0.1,1.6-0.1,2.1-0.1c0.7,0,1.3,0.1,2,0.3c0.6,0.2,1,0.8,1,1.5c0,0.6-0.2,1.1-0.6,1.6
	c-0.3,0.4-0.7,0.6-1.2,0.7l-0.1,0l0.1,0.1c0.4,0.7,0.8,1.5,1.2,2.3h-2.5c-0.3-0.9-0.4-1.2-0.8-2.2L14.8,21h-2.2L14.1,14.6z
	 M15.8,17.7c0.7,0,1.2-0.4,1.2-1c0-0.3-0.2-0.5-0.7-0.5c-0.1,0-0.2,0-0.4,0l-0.3,1.5C15.7,17.6,15.7,17.6,15.8,17.7L15.8,17.7z"/>
<path class="st0" d="M24.8,14.6h5.5l-0.4,1.9h-1.7L27.2,21h-2.3l1.1-4.5h-1.8L24.8,14.6z"/>
<path class="st0" d="M28.2,19.9c0.3,0,0.6,0.2,0.6,0.6c0,0.3-0.2,0.6-0.6,0.6c-0.3,0-0.6-0.2-0.6-0.6S27.9,19.9,28.2,19.9L28.2,19.9
	z M28.2,20.9c0.3,0,0.5-0.2,0.5-0.5c0-0.3-0.2-0.5-0.5-0.5c-0.3,0-0.5,0.2-0.5,0.5c0,0,0,0,0,0C27.8,20.7,28,20.9,28.2,20.9
	C28.2,20.9,28.2,20.9,28.2,20.9z M28,20.1L28,20.1h0.2c0.2,0,0.3,0.1,0.3,0.2c0,0.1,0,0.1-0.1,0.2l0,0l0,0c0.1,0.1,0.1,0.1,0.1,0.2
	h-0.2c0-0.1-0.1-0.1-0.1-0.2v0.2H28L28,20.1z M28.2,20.4C28.3,20.4,28.3,20.4,28.2,20.4c0.1-0.1,0.1-0.1,0-0.1h0L28.2,20.4
	L28.2,20.4z"/>
<path class="st0" d="M18.9,20.8c0.6,0.2,1.3,0.3,2,0.3c0.8,0,1.5-0.2,2.2-0.6c0.6-0.4,1-1.1,1.1-1.8c0-0.4-0.2-0.8-0.5-1.1
	c-0.3-0.3-0.7-0.5-1.1-0.6l-0.5-0.2c-0.1-0.1-0.2-0.2-0.2-0.2c0-0.2,0.3-0.4,0.7-0.4c0.5,0,0.9,0.1,1.3,0.3l0.5-1.7
	c-0.5-0.1-1-0.2-1.5-0.2c-1.9,0-3.3,1-3.3,2.3c0,0.7,0.5,1.2,1.6,1.7c0.5,0.3,0.6,0.3,0.6,0.5c0,0.3-0.3,0.4-0.7,0.4
	c-0.6,0-1.1-0.2-1.6-0.4l0,0L18.9,20.8z"/>
</svg>
