<svg height="35px" width="35px" id="Layer_2" data-name="Layer 2" xmlns="http://www.w3.org/2000/svg" viewBox="0 0 97 115.59"><defs><style>.cls-1{fill:#ed1b24;}</style></defs><title>FIRSTLego_IconVert_OneColor</title><path class="cls-1" d="M0,97H4.75v14.15h8.51v4.09H0Z"/><path class="cls-1" d="M14.07,97H28.61v3.81H18.82V104h8.94v3.68H18.82v3.47h10v4.09H14.07Z"/><path class="cls-1" d="M35,97h4.83l6.81,18.24h-5l-1.12-3.27H34.2l-1.15,3.27H28.17Zm.3,11.44h4.14l-2-6.38h0Z"/><path class="cls-1" d="M63.31,115.21H60.25l-.29-2a6.2,6.2,0,0,1-5.08,2.37c-5.52,0-9.09-4.21-9.09-9.5s3.57-9.5,9.09-9.5c3.78,0,7.82,2,8.25,6.59H58.38c-.15-1.56-1.68-2.5-3.6-2.5-3.07,0-4.24,2.7-4.24,5.41s1.17,5.42,4.24,5.42c2.35,0,3.93-1.1,4.19-2.76H55.65v-3.53h7.66Z"/><path class="cls-1" d="M80.58,107.67c0,5.29-2.43,7.92-8,7.92s-7.94-2.63-7.94-7.92V97h4.75v11c0,2.35.87,3.55,3.19,3.55s3.19-1.2,3.19-3.55V97h4.76Z"/><path class="cls-1" d="M82.21,97H96.74v3.81H87V104H95.9v3.68H87v3.47H97v4.09H82.21Z"/><path class="cls-1" d="M14,73.62h4.75V87.77h8.51v4.09H14Z"/><path class="cls-1" d="M28.06,73.62H42.6v3.81H32.81v3.19h8.94V84.3H32.81v3.47h10v4.09H28.06Z"/><path class="cls-1" d="M60.86,91.86H57.79l-.28-2a6.22,6.22,0,0,1-5.08,2.37c-5.52,0-9.1-4.21-9.1-9.5s3.58-9.5,9.1-9.5c3.78,0,7.81,2,8.25,6.59H55.93c-.16-1.56-1.69-2.5-3.61-2.5-3.06,0-4.24,2.7-4.24,5.41s1.18,5.42,4.24,5.42c2.35,0,3.94-1.1,4.19-2.76H53.19V81.87h7.67Z"/><path class="cls-1" d="M70.66,73.24c5.75,0,9,4.21,9,9.5s-3.24,9.5-9,9.5-9-4.21-9-9.5S64.91,73.24,70.66,73.24Zm0,14.92c3.07,0,4.24-2.71,4.24-5.42s-1.17-5.41-4.24-5.41-4.24,2.7-4.24,5.41S67.6,88.16,70.66,88.16Z"/><path class="cls-1" d="M81.16,73.68a1.84,1.84,0,1,1-1.83,1.83A1.83,1.83,0,0,1,81.16,73.68Zm0,3.45a1.61,1.61,0,1,0-1.6-1.62A1.61,1.61,0,0,0,81.16,77.13Zm-.71-2.56.29,0,.34,0c.61,0,.91.23.91.68a.5.5,0,0,1-.36.52h0l0,0a4.85,4.85,0,0,1,.46.67h-.7c-.14-.27-.18-.34-.36-.64v.64h-.59Zm.66.89c.17,0,.26-.08.26-.23s-.09-.22-.25-.22H81v.43Z"/><path class="cls-1" d="M22.26,30.68l-.54,2.78L27,31.19a12.7,12.7,0,0,1-.8-2.21Z"/><line class="cls-1" x1="22.26" y1="30.68" x2="22.26" y2="30.68"/><path class="cls-1" d="M86.3,20.54h0L64.84,0,57.63,7.55A35.38,35.38,0,0,0,46.4,5.47,28.41,28.41,0,0,0,32.14,9.55L22.08,0V0h0l-3.6.37L10.7,42.91l3.61.38h0L30.7,36.11l.08.07c3.9,3.44,9.75,5.63,16.3,5.63A26.61,26.61,0,0,0,59.28,39l6.59,6.32L86.3,24V20.55ZM46.22,6.28A35.84,35.84,0,0,1,57,8.2l-.13.13-3.19,3.32h0a20.89,20.89,0,0,0-6.6-1,19.27,19.27,0,0,0-10.64,3l0,0-3.35-3.17-.3-.28A26.57,26.57,0,0,1,46.22,6.28Zm4.5,8.47-6.24,6.5L39,16.05a20.4,20.4,0,0,1,8.08-1.62A21.62,21.62,0,0,1,50.72,14.75ZM14.47,42.38,22,.72,32.63,10.84,36,14l2.56,2.42,6.06,5.79v2.64l2.58,2.47L39.12,31a14.44,14.44,0,0,1-4.64-3l-.08-.08L40.58,25,26,11.45l-.29-.29L25.41,13,22,30.93l-.53,2.78.91-.39v0l4.68-2a14.68,14.68,0,0,0,3.08,4.25Zm34-13.79L52,31.93a21,21,0,0,1-5,.6,20.46,20.46,0,0,1-6.14-.91L40,31.36l7.71-3.47Zm-15.37-2.3L33,26.12a8.51,8.51,0,0,1-1.09-2.53c0-.09,0-.18,0-.27A9,9,0,0,1,33,20.83l4.05,4Zm-7.77-2s0,.05,0,.08a2.35,2.35,0,0,0,0,.26,25.62,25.62,0,0,0,.88,4.42h0l-3.33,1.42L26.06,14l1.31,1.29a12.76,12.76,0,0,0-2.2,7.1A11.43,11.43,0,0,0,25.34,24.33ZM58.82,35.07a23,23,0,0,1-2.47,1.08,27.13,27.13,0,0,1-9.41,1.63,25.94,25.94,0,0,1-12.83-3.22A18.45,18.45,0,0,1,29,30.35a14.88,14.88,0,0,1-1.35-1.92,12.33,12.33,0,0,1-1.55-4.22,12.2,12.2,0,0,1-.16-1.86,12,12,0,0,1,1.92-6.44l3.41,3.46a8.53,8.53,0,0,0-.35,2.39,8.28,8.28,0,0,0,.25,2,9.45,9.45,0,0,0,1.18,2.75,11.8,11.8,0,0,0,1.59,2,16.17,16.17,0,0,0,6.64,3.84,21.35,21.35,0,0,0,6.37.95,21.81,21.81,0,0,0,5.25-.63A19.54,19.54,0,0,0,55,31.76a15.53,15.53,0,0,0,5.11-3.37,10,10,0,0,0,2.66-4.62,8.71,8.71,0,0,0,.25-2,10.27,10.27,0,0,0-1.89-5.69l2.91-3a13.82,13.82,0,0,1,4,9.3,11,11,0,0,1-.16,1.86,13.52,13.52,0,0,1-4.2,7.54A19.86,19.86,0,0,1,58.82,35.07Zm.84-7.36L54.6,22.78l4.28-4.47a10.38,10.38,0,0,1,3.25,4.46,5.64,5.64,0,0,1-.15.82A9.21,9.21,0,0,1,59.66,27.71Zm8.91-3.54a11.45,11.45,0,0,0,.15-1.82,14.64,14.64,0,0,0-4.22-9.88l.69-.72L75.91,22,67,31.29a19.15,19.15,0,0,0,1.55-6.84C68.58,24.37,68.58,24.27,68.57,24.17Zm-2.7,17.64-4.36-4.18a17.76,17.76,0,0,0,4.28-4.08l0-.07,10.6-11,.32-.34,1.38-1.44L65.19,8.28l-2.91,3-3.21,3.35-2.19,2.27-4.12,4.3h0l-.36.37,1.2,1.15,5.58,5.44a15.07,15.07,0,0,1-4.52,2.87h0L51,27.52l-3.61-3.47-2.46-2.33,5.84-6.09,2.94-3.05,3.19-3.32,8-8.3L85.82,21Z"/><path class="cls-1" d="M11.16,48.19H25.73L24.36,53.8h-7l-.69,3H24L22.7,62H15.51l-1.73,7.38H6.26Z"/><path class="cls-1" d="M27.71,48.19h7.53L30.33,69.33H22.81Z"/><path class="cls-1" d="M37.21,48.32l.48-.07c2.42-.28,5.42-.47,7.08-.47a17.34,17.34,0,0,1,6.52,1,5.26,5.26,0,0,1,3.32,5,7.9,7.9,0,0,1-1.9,5.2,7.49,7.49,0,0,1-4,2.44l-.48.15.38.32a51.37,51.37,0,0,1,3.83,7.48H44.11c-1.07-3-1.38-3.8-2.8-7.22l-1.65,7.22H32.34Zm5.55,10c2.42,0,4.11-1.43,4.11-3.45,0-1.08-.79-1.62-2.34-1.62a5,5,0,0,0-1.18.13l-1.14,4.88A3.09,3.09,0,0,0,42.76,58.27Z"/><path class="cls-1" d="M72.48,48.19H90.74l-1.28,6.12H84l-3.59,15H72.93l3.59-15H70.64Z"/><path class="cls-1" d="M84,65.56a1.83,1.83,0,1,1-1.83,1.83A1.83,1.83,0,0,1,84,65.56ZM84,69a1.61,1.61,0,1,0-1.6-1.61A1.59,1.59,0,0,0,84,69Zm-.7-2.55.29,0,.34,0c.6,0,.9.23.9.68a.52.52,0,0,1-.36.53h0s0,0,0,0a5.57,5.57,0,0,1,.45.67h-.68c-.15-.27-.19-.34-.37-.64v.64h-.58Zm.66.88c.16,0,.25-.08.25-.23s-.08-.22-.25-.22h-.08v.43Z"/><path class="cls-1" d="M53.14,68.8a24,24,0,0,0,6.59,1,11.57,11.57,0,0,0,7.11-2.06,7.89,7.89,0,0,0,3.53-6,4.71,4.71,0,0,0-1.73-3.65A15.68,15.68,0,0,0,65.05,56l-1.49-.7c-.48-.25-.72-.51-.72-.79,0-.76,1-1.33,2.28-1.33a14.9,14.9,0,0,1,4.38,1l1.55-5.72a18.83,18.83,0,0,0-4.93-.68c-6.15,0-10.88,3.36-10.88,7.7,0,2.28,1.52,3.9,5.32,5.67,1.79.83,2.11,1.05,2.11,1.62,0,.86-.94,1.4-2.46,1.4a17,17,0,0,1-5.42-1.27h0Z"/></svg>
