<?xml version="1.0" encoding="utf-8"?>
<!-- Generator: Adobe Illustrator 26.0.2, SVG Export Plug-In . SVG Version: 6.00 Build 0)  -->
<svg version="1.1" id="Layer_2_00000138551518675967047040000001446391741790182024_"
	 xmlns="http://www.w3.org/2000/svg" xmlns:xlink="http://www.w3.org/1999/xlink" x="0px" y="0px" viewBox="0 0 43.6 34.4"
	 style="enable-background:new 0 0 43.6 34.4;" xml:space="preserve">
<style type="text/css">
	.st0{fill:#F57F27;}
	.st1{fill:none;}
</style>
<g>
	<path class="st0" d="M14,9.1l-0.2,0.8l1.6-0.7c-0.1-0.2-0.2-0.4-0.2-0.7L14,9.1z"/>
	<line class="st1" x1="14" y1="9.1" x2="14" y2="9.1"/>
	<path class="st0" d="M33,6.1L33,6.1L26.7,0l-2.1,2.2c-1.1-0.4-2.2-0.6-3.3-0.6c-1.5,0-3,0.4-4.2,1.2L14,0l0,0l0,0l-1.1,0.1
		l-2.3,12.6l1.1,0.1l0,0l4.9-2.1l0,0c1.2,1,2.9,1.7,4.8,1.7c1.3,0,2.5-0.3,3.6-0.8l2,1.9L33,7.1V6.1L33,6.1z M21.1,1.9
		c1.1,0,2.2,0.2,3.2,0.6l0,0l-0.9,1l0,0c-0.6-0.2-1.3-0.3-2-0.3c-1.1,0-2.2,0.3-3.2,0.9l0,0l-1-1L17.1,3C18.3,2.3,19.7,1.9,21.1,1.9
		z M22.5,4.4l-1.9,1.9L19,4.8c0.8-0.3,1.6-0.5,2.4-0.5C21.7,4.3,22.1,4.3,22.5,4.4z M11.7,12.6l2.2-12.4l3.2,3l1,0.9l0.8,0.7
		l1.8,1.7v0.8l0.8,0.7L19,9.2c-0.5-0.2-1-0.5-1.4-0.9c0,0,0,0,0,0l1.8-0.9l-4.3-4l-0.1-0.1l-0.1,0.5l-1,5.3L13.8,10L14,9.9l0,0
		l1.4-0.6c0.2,0.5,0.5,0.9,0.9,1.3L11.7,12.6z M21.8,8.5l1,1c-0.5,0.1-1,0.2-1.5,0.2c-0.6,0-1.2-0.1-1.8-0.3l-0.2-0.1l2.3-1
		L21.8,8.5z M17.2,7.8L17.2,7.8C17,7.5,16.9,7.3,16.9,7c0,0,0-0.1,0-0.1c0.1-0.3,0.2-0.5,0.4-0.7l1.2,1.2L17.2,7.8z M14.9,7.2
		C14.9,7.2,14.9,7.2,14.9,7.2c0,0,0,0.1,0,0.1c0,0.4,0.1,0.9,0.3,1.3l0,0l-1,0.4l0.9-4.9l0.4,0.4c-0.4,0.6-0.6,1.4-0.7,2.1
		C14.9,6.8,14.9,7,14.9,7.2L14.9,7.2z M24.9,10.4c-0.2,0.1-0.5,0.2-0.7,0.3c-0.9,0.3-1.8,0.5-2.8,0.5c-1.3,0-2.6-0.3-3.8-1
		C17,9.9,16.4,9.5,16,9c-0.1-0.2-0.3-0.4-0.4-0.6c-0.2-0.4-0.4-0.8-0.5-1.3c0-0.2,0-0.4,0-0.6c0-0.7,0.2-1.3,0.6-1.9l1,1
		c-0.1,0.2-0.1,0.5-0.1,0.7c0,0.2,0,0.4,0.1,0.6c0.1,0.3,0.2,0.6,0.4,0.8c0.1,0.2,0.3,0.4,0.5,0.6c0.6,0.5,1.2,0.9,2,1.1
		c0.6,0.2,1.3,0.3,1.9,0.3c0.5,0,1-0.1,1.6-0.2c0.3-0.1,0.6-0.2,0.8-0.3c0.6-0.2,1.1-0.6,1.5-1c0.4-0.4,0.7-0.9,0.8-1.4
		c0-0.2,0.1-0.4,0.1-0.6c0-0.6-0.2-1.2-0.6-1.7l0.9-0.9c0.7,0.7,1.2,1.7,1.2,2.8c0,0.2,0,0.4,0,0.6c-0.2,0.9-0.6,1.6-1.2,2.2
		C25.9,9.8,25.4,10.2,24.9,10.4z M25.1,8.2l-1.5-1.5l1.3-1.3c0.4,0.3,0.8,0.8,1,1.3c0,0.1,0,0.2,0,0.2C25.7,7.5,25.5,7.9,25.1,8.2z
		 M27.8,7.2c0-0.2,0-0.4,0-0.5c0-1.1-0.5-2.1-1.3-2.9l0.2-0.2l3.2,3l-2.6,2.8C27.6,8.6,27.8,8,27.8,7.2C27.8,7.2,27.8,7.2,27.8,7.2z
		 M27,12.4l-1.3-1.2c0.5-0.3,0.9-0.7,1.3-1.2c0,0,0,0,0,0l3.1-3.3l0.1-0.1l0.4-0.4l-3.8-3.7l-0.9,0.9l-1,1L24.3,5l-1.2,1.3l0,0
		L23,6.4l0.4,0.3L25,8.4c-0.4,0.4-0.8,0.7-1.3,0.9l0,0l-1.1-1l-1.1-1l-0.7-0.7l1.7-1.8l0.9-0.9l0.9-1l2.4-2.5l6.2,6L27,12.4z"/>
	<path class="st0" d="M15.5,23.2h-1.6v4.2h-1.4v-4.2h-1.6V22h4.6V23.2z"/>
	<path class="st0" d="M15.7,22H20v1.1h-2.9v1h2.7v1.1h-2.7v1h3v1.2h-4.4V22z"/>
	<path class="st0" d="M24,23.9c-0.1-0.5-0.5-0.8-1.1-0.8c-0.9,0-1.3,0.8-1.3,1.6c0,0.8,0.4,1.6,1.3,1.6c0.6,0,1-0.4,1.1-0.9
		c0,0,0-0.1,0-0.1h1.4c-0.1,1.4-1.1,2.2-2.5,2.2c-1.6,0-2.7-1.3-2.7-2.8s1.1-2.8,2.7-2.8c1.2,0,2.4,0.7,2.5,2H24z"/>
	<path class="st0" d="M25.7,22h1.4v2H29v-2h1.4v5.4H29v-2.2h-1.9v2.2h-1.4V22z"/>
	<path class="st0" d="M3.8,30.8C3.7,30.3,3.3,30,2.7,30c-0.9,0-1.3,0.8-1.3,1.6s0.3,1.6,1.3,1.6c0.6,0,1-0.4,1.1-0.9
		c0,0,0-0.1,0-0.1h1.4c-0.1,1.4-1.1,2.2-2.5,2.2c-1.6,0-2.7-1.3-2.7-2.8c0-1.6,1.1-2.8,2.7-2.8c1.2,0,2.4,0.7,2.5,2L3.8,30.8z"/>
	<path class="st0" d="M5.5,28.9h1.4v2h1.9v-2h1.4v5.4H8.7v-2.2H6.9v2.2H5.5V28.9z"/>
	<path class="st0" d="M12.1,28.9h1.4l2,5.4h-1.5l-0.3-1h-1.9l-0.3,1h-1.5L12.1,28.9z M12.2,32.3h1.2l-0.6-1.9h0L12.2,32.3z"/>
	<path class="st0" d="M15.5,28.9h1.4v4.2h2.5v1.2h-3.9V28.9z"/>
	<path class="st0" d="M19.7,28.9h1.4v4.2h2.5v1.2h-3.9V28.9z"/>
	<path class="st0" d="M23.9,28.9h4.3V30h-2.9V31h2.7v1.1h-2.7v1h3v1.2h-4.4V28.9z"/>
	<path class="st0" d="M28.6,28.9H30l1.9,3.3l0,0v-3.3h1.3v5.4h-1.4L29.9,31l0,0v3.4h-1.3V28.9z"/>
	<path class="st0" d="M38.8,34.3h-0.9l-0.1-0.6c-0.4,0.5-0.9,0.7-1.5,0.7c-1.6,0-2.7-1.3-2.7-2.8c0-1.6,1.1-2.8,2.7-2.8
		c1.1,0,2.3,0.6,2.4,2h-1.4c0-0.5-0.5-0.7-1.1-0.7c-0.9,0-1.3,0.8-1.3,1.6c0,0.8,0.3,1.6,1.3,1.6c0.7,0,1.2-0.3,1.2-0.8h-1v-1h2.3
		V34.3z"/>
	<path class="st0" d="M39.2,28.9h4.3V30h-2.9V31h2.7v1.1h-2.7v1h3v1.2h-4.4V28.9z"/>
	<path class="st0" d="M10.7,14.3H15L14.6,16h-2.1l-0.2,0.9h2.2l-0.4,1.5H12l-0.5,2.2H9.2L10.7,14.3z"/>
	<path class="st0" d="M15.6,14.3h2.2l-1.5,6.3h-2.2L15.6,14.3z"/>
	<path class="st0" d="M18.4,14.3l0.1,0c0.7-0.1,1.4-0.1,2.1-0.1c0.7,0,1.3,0.1,1.9,0.3c0.6,0.2,1,0.8,1,1.5c0,0.6-0.2,1.1-0.6,1.5
		c-0.3,0.4-0.7,0.6-1.2,0.7l-0.1,0c0,0,0.1,0.1,0.1,0.1c0.4,0.7,0.8,1.5,1.1,2.2h-2.5c-0.3-0.9-0.4-1.1-0.8-2.1l-0.5,2.1H17
		L18.4,14.3z M20.1,17.3c0.7,0,1.2-0.4,1.2-1c0-0.3-0.2-0.5-0.7-0.5c-0.1,0-0.2,0-0.4,0l-0.3,1.5C20,17.3,20,17.3,20.1,17.3
		L20.1,17.3z"/>
	<path class="st0" d="M28.9,14.3h5.4L34,16.1h-1.6l-1.1,4.5h-2.2l1.1-4.5h-1.7L28.9,14.3z"/>
	<path class="st0" d="M32.4,19.5c0.3,0,0.6,0.2,0.6,0.5s-0.2,0.6-0.5,0.6c0,0-0.1,0-0.1,0c-0.3,0-0.6-0.2-0.6-0.5S32,19.5,32.4,19.5
		C32.3,19.4,32.3,19.4,32.4,19.5z M32.4,20.5c0.3,0,0.5-0.2,0.5-0.5c0-0.3-0.2-0.5-0.5-0.5c-0.3,0-0.5,0.2-0.5,0.5
		C31.9,20.3,32.1,20.5,32.4,20.5C32.4,20.5,32.4,20.5,32.4,20.5z M32.2,19.7L32.2,19.7h0.2c0.2,0,0.3,0.1,0.3,0.2
		c0,0.1,0,0.1-0.1,0.2l0,0l0,0c0.1,0.1,0.1,0.1,0.1,0.2h-0.2c0-0.1-0.1-0.1-0.1-0.2v0.2h-0.2V19.7z M32.3,20
		C32.4,20,32.4,20,32.3,20c0.1-0.1,0.1-0.1,0-0.1h0L32.3,20L32.3,20z"/>
	<path class="st0" d="M23.2,20.4c0.6,0.2,1.3,0.3,2,0.3c0.8,0,1.5-0.2,2.1-0.6c0.6-0.4,1-1.1,1-1.8c0-0.4-0.2-0.8-0.5-1.1
		c-0.3-0.2-0.7-0.5-1.1-0.6l-0.4-0.2c-0.1-0.1-0.2-0.2-0.2-0.2c0-0.2,0.3-0.4,0.7-0.4c0.4,0,0.9,0.1,1.3,0.3l0.5-1.7
		c-0.5-0.1-1-0.2-1.5-0.2c-1.8,0-3.2,1-3.2,2.3c0,0.7,0.5,1.2,1.6,1.7c0.5,0.2,0.6,0.3,0.6,0.5c0,0.3-0.3,0.4-0.7,0.4
		c-0.6,0-1.1-0.2-1.6-0.4l0,0L23.2,20.4z"/>
</g>
</svg>
