<svg height="35px" width="35px" id="Layer_1" data-name="Layer 1" xmlns="http://www.w3.org/2000/svg" viewBox="0 0 236.96 131.82"><defs><style>.cls-1{fill:#a2a1a6;}</style></defs><title>VRC-Stacked-Black</title><g id="Logos_All" data-name="Logos All"><path class="cls-1" d="M.74,86.55h12.8c4.62,0,5.35,1.52,5.35,4.53v1.31c0,2.25-1.28,2.87-2.94,3h0c2.21.4,2.74,1.55,2.74,3v4.09h-2V99c0-2.5-1.22-2.8-3.19-2.8H2.9v6.32H.74ZM13.3,94.47c2.41,0,3.43-.65,3.43-2.33V90.68c0-1.79-.78-2.36-4-2.36H2.9v6.15Z"/><path class="cls-1" d="M33.38,92.36c0-4,1.37-6,5.7-6h9.23c4.33,0,5.7,2,5.7,6v4.39c0,4-1.37,6-5.7,6H39.06c-4.33,0-5.7-2-5.7-6Zm18.46-.81c0-2.79-1.68-3.41-3.76-3.41H39.3c-2.07,0-3.76.62-3.76,3.41v6c0,2.79,1.69,3.41,3.76,3.41h8.76c2.08,0,3.76-.62,3.76-3.41Z"/><path class="cls-1" d="M68.94,86.55H82.6c3.32,0,4.25,1.72,4.25,3.56v1.37c0,1.15-.64,2.32-2.59,2.52v.09c1.71.09,3.21.73,3.21,3.16v1.91c0,2.23-2,3.4-4.64,3.4H68.94ZM84.68,90c0-1.46-1.61-1.68-2.27-1.68H71.06v5.11h11.2c1.17,0,2.38-.38,2.38-2Zm.62,7.5c0-2-1.1-2.3-3.07-2.3H71.06v5.55h11.5c2,0,2.74-.73,2.74-2.14Z"/><path class="cls-1" d="M102,92.36c0-4,1.37-6,5.7-6h9.23c4.33,0,5.7,2,5.7,6v4.39c0,4-1.37,6-5.7,6H107.7c-4.33,0-5.7-2-5.7-6Zm18.46-.81c0-2.79-1.68-3.41-3.75-3.41h-8.78c-2.08,0-3.76.62-3.76,3.41v6c0,2.79,1.68,3.41,3.76,3.41h8.78c2.07,0,3.75-.62,3.75-3.41Z"/><path class="cls-1" d="M143.91,88.32h-8.1V86.55h18.36v1.77h-8.11v14.24H143.9Z"/><path class="cls-1" d="M167.83,86.55H170v16h-2.17Z"/><path class="cls-1" d="M185,92.36c0-4,1.38-6,5.71-6H199c3.94,0,5,1.84,5,4v1.39h-1.9V91c0-2.72-1.68-2.85-3.67-2.85H190.9c-2.08,0-3.76.62-3.76,3.41v6c0,2.79,1.68,3.41,3.76,3.41h7.59c2.92,0,3.76-.62,3.76-2.79v-1h2v1.08c0,2.9-.93,4.47-5.42,4.47h-8.18c-4.33,0-5.71-2-5.71-6Z"/><path class="cls-1" d="M218.5,97.52h2v1.13c0,1.57.84,2.32,3.54,2.32h6.72c3.14,0,4.07-.67,4.07-3,0-2-.79-2.52-3.49-2.52h-4.08c-6.62,0-8.79-.39-8.79-4.64,0-3.65,2.17-4.47,6.64-4.47h4.67c5.37,0,6.72,1.37,6.72,4.22v.56h-2c0-2.55-.31-3-6-3h-2.3c-4.18,0-5.66.22-5.66,2.85,0,1.91.6,2.55,4,2.55H231c4.22,0,6,1.21,6,3.93v1c0,3.94-3.23,4.23-6.44,4.23h-6c-3.17,0-6-.56-6-4.05Z"/><path class="cls-1" d="M.06,120.75c0-4.92,2.76-6.08,7.4-6.08h6c7.32,0,8.28,1.58,8.23,6.33H16.54v-.46c0-1.21-.88-1.55-2.41-1.55H8.52c-2.71,0-3.22,1.27-3.22,3.36v1.81c0,2.43.51,3.36,2.94,3.36h5.5c2.32,0,3-.23,3-2.32h5.15v1.58c0,2.82-1,5-6.19,5H7.4c-4.64,0-7.4-1.16-7.4-6.07Z"/><path class="cls-1" d="M24.83,120.75c0-4.92,2.76-6.08,7.39-6.08h8.26c4.63,0,7.39,1.16,7.39,6.08v5c0,4.91-2.76,6.07-7.39,6.07H32.22c-4.63,0-7.39-1.16-7.39-6.07Zm5.28,3.41c0,2.43.51,3.36,3,3.36h6.58c2.44,0,3-.93,3-3.36v-1.81c0-2.09-.51-3.36-3.23-3.36h-6c-2.72,0-3.23,1.27-3.23,3.36Z"/><path class="cls-1" d="M51.17,114.88h7.89l5.82,10.8,5.82-10.8h7.9v16.78h-5v-12h0l-6.75,12H63l-6.74-12h0v12h-5Z"/><path class="cls-1" d="M82.29,114.88h14c4.89,0,6.07,2.46,6.07,5.75v1.44c0,2.5-1.09,5.38-4.73,5.38H87.44v4.21H82.29Zm5.15,8.39h8a1.58,1.58,0,0,0,1.68-1.45,1.22,1.22,0,0,0,0-.33v-.65c0-1.14-.56-1.79-2.11-1.79H87.44Z"/><path class="cls-1" d="M105.37,114.88h18.36v3.87H110.52v2.69h12.54v3.48H110.52v2.69h13.54v4H105.37Z"/><path class="cls-1" d="M126.06,114.88h19.62v4.17h-7.24v12.61H133.3V119.05h-7.24Z"/><path class="cls-1" d="M148.43,114.88h5.15v16.78h-5.15Z"/><path class="cls-1" d="M156.3,114.88h19.61v4.17h-7.23v12.61h-5.15V119.05H156.3Z"/><path class="cls-1" d="M178.63,114.88h5.15v16.78h-5.15Z"/><path class="cls-1" d="M187.35,120.75c0-4.92,2.76-6.08,7.4-6.08H203c4.64,0,7.39,1.16,7.39,6.08v5c0,4.91-2.75,6.07-7.39,6.07h-8.25c-4.64,0-7.4-1.16-7.4-6.07Zm5.29,3.41c0,2.43.51,3.36,2.94,3.36h6.58c2.44,0,3-.93,3-3.36v-1.81c0-2.09-.51-3.36-3.22-3.36h-6c-2.71,0-3.22,1.27-3.22,3.36Z"/><path class="cls-1" d="M213.69,114.88h8l9.67,12.19h0V114.88h5.15v16.78h-8l-9.66-12.19h0v12.19h-5.15Z"/><path class="cls-1" d="M214.88,30a.9.9,0,0,0-.5.16l-20.57,14.3-20.67-14.3a.84.84,0,0,0-.49-.16H154.49a.87.87,0,0,0-.84.62,1,1,0,0,0,0,.25.87.87,0,0,0,.39.72l29.42,19.92c-2,1.35-31.93,21.39-31.93,21.39a.86.86,0,0,0-.38.72.57.57,0,0,0,0,.26.87.87,0,0,0,.83.61h18.56a.86.86,0,0,0,.49-.15l22.78-15.77,22.58,15.77a.89.89,0,0,0,.5.15h18.25a.87.87,0,0,0,.83-.61.57.57,0,0,0,0-.26.84.84,0,0,0-.38-.71l-31.74-21.4,29.53-19.92a.87.87,0,0,0,.39-.72,1,1,0,0,0,0-.25.87.87,0,0,0-.83-.62Z"/><path class="cls-1" d="M72.06,30a.86.86,0,0,0-.67.32L44.22,63.6,17.5,30.33a.85.85,0,0,0-.68-.33H1.58a.86.86,0,0,0-.79.5.88.88,0,0,0,.11.92L36.12,74.18a.85.85,0,0,0,.67.31H51.64a.83.83,0,0,0,.66-.31L88.06,31.43A.87.87,0,0,0,88,30.2a.85.85,0,0,0-.56-.2Z"/><path class="cls-1" d="M96.2,30a25.57,25.57,0,0,1-2.81-12.07C93.39,8.18,98.27,0,104.21,0h37.58c2,0,3.65,2.73,3.65,6s-1.65,6-3.65,6H104.21c-2,0-3.53,2.72-3.53,5.84S102.1,24,104.21,24h37.58c2,0,3.65,2.69,3.65,6h0c0,3.26-1.65,6-3.65,6H104.21c-2.11,0-3.53,3-3.53,6.13s1.53,5.84,3.53,5.84h37.58c2,0,3.65,2.73,3.65,6s-1.65,6-3.65,6H104.21c-5.94,0-10.82-8.18-10.82-17.92A25.57,25.57,0,0,1,96.2,30Z"/><path class="cls-1" d="M233.06,62.22a2.92,2.92,0,0,1,1.44.38,2.7,2.7,0,0,1,1.09,1.08,3,3,0,0,1,0,2.93,2.64,2.64,0,0,1-1.09,1.08,2.91,2.91,0,0,1-2.91,0,2.64,2.64,0,0,1-1.09-1.08,3,3,0,0,1-.39-1.46,2.92,2.92,0,0,1,.4-1.47,2.6,2.6,0,0,1,1.1-1.08A2.92,2.92,0,0,1,233.06,62.22Zm0,.49a2.56,2.56,0,0,0-1.21.31,2.34,2.34,0,0,0-.91.91,2.45,2.45,0,0,0,0,2.44,2.46,2.46,0,0,0,4.25,0,2.45,2.45,0,0,0,0-2.44,2.34,2.34,0,0,0-.91-.91,2.49,2.49,0,0,0-1.2-.27Zm-1.26,4V63.6h1.08a2.76,2.76,0,0,1,.81.09.78.78,0,0,1,.39.3.75.75,0,0,1,.15.46.86.86,0,0,1-.25.61,1,1,0,0,1-.65.28,1,1,0,0,1,.27.17,3.18,3.18,0,0,1,.46.63l.39.61h-.62l-.28-.49a2.48,2.48,0,0,0-.54-.74.64.64,0,0,0-.4-.11h-.3v1.34Zm.51-1.77h.62a1,1,0,0,0,.6-.13.42.42,0,0,0,.16-.35.33.33,0,0,0-.08-.25.39.39,0,0,0-.21-.17,1.46,1.46,0,0,0-.51,0h-.58Z"/></g></svg>
