<?xml version="1.0" encoding="utf-8"?>
<!-- Generator: Adobe Illustrator 26.0.2, SVG Export Plug-In . SVG Version: 6.00 Build 0)  -->
<svg version="1.1" id="Layer_1" xmlns="http://www.w3.org/2000/svg" xmlns:xlink="http://www.w3.org/1999/xlink" x="0px" y="0px"
	 viewBox="0 0 46.3 25.7" style="enable-background:new 0 0 46.3 25.7;" xml:space="preserve">
<style type="text/css">
	.st0{fill:#A2A1A6;}
</style>
<g id="Logos_All">
	<path class="st0" d="M0.1,16.9h2.5c0.9,0,1,0.3,1,0.9V18c0,0.4-0.2,0.6-0.6,0.6l0,0c0.4,0.1,0.5,0.3,0.5,0.6V20H3.3v-0.7
		c0-0.5-0.2-0.5-0.6-0.5H0.6V20H0.1V16.9z M2.6,18.4c0.5,0,0.7-0.1,0.7-0.5v-0.3c0-0.3-0.2-0.5-0.8-0.5H0.6v1.2H2.6z"/>
	<path class="st0" d="M6.5,18c0-0.8,0.3-1.2,1.1-1.2h1.8c0.8,0,1.1,0.4,1.1,1.2v0.9c0,0.8-0.3,1.2-1.1,1.2H7.6
		c-0.8,0-1.1-0.4-1.1-1.2L6.5,18z M10.1,17.9c0-0.5-0.3-0.7-0.7-0.7H7.7c-0.4,0-0.7,0.1-0.7,0.7V19c0,0.5,0.3,0.7,0.7,0.7h1.7
		c0.4,0,0.7-0.1,0.7-0.7L10.1,17.9z"/>
	<path class="st0" d="M13.5,16.9h2.7c0.6,0,0.8,0.3,0.8,0.7v0.3c0,0.2-0.1,0.5-0.5,0.5v0c0.3,0,0.6,0.1,0.6,0.6v0.4
		c0,0.4-0.4,0.7-0.9,0.7h-2.7V16.9z M16.5,17.6c0-0.3-0.3-0.3-0.4-0.3h-2.2v1h2.2c0.2,0,0.5-0.1,0.5-0.4L16.5,17.6z M16.6,19
		c0-0.4-0.2-0.4-0.6-0.4h-2.2v1.1h2.2c0.4,0,0.5-0.1,0.5-0.4V19z"/>
	<path class="st0" d="M19.9,18c0-0.8,0.3-1.2,1.1-1.2h1.8c0.8,0,1.1,0.4,1.1,1.2v0.9c0,0.8-0.3,1.2-1.1,1.2H21
		c-0.8,0-1.1-0.4-1.1-1.2V18z M23.5,17.9c0-0.5-0.3-0.7-0.7-0.7h-1.7c-0.4,0-0.7,0.1-0.7,0.7V19c0,0.5,0.3,0.7,0.7,0.7h1.7
		c0.4,0,0.7-0.1,0.7-0.7V17.9z"/>
	<path class="st0" d="M28.1,17.2h-1.6v-0.3h3.6v0.3h-1.6V20h-0.4L28.1,17.2z"/>
	<path class="st0" d="M32.8,16.9h0.4V20h-0.4V16.9z"/>
	<path class="st0" d="M36.1,18c0-0.8,0.3-1.2,1.1-1.2h1.6c0.8,0,1,0.4,1,0.8v0.3h-0.4v-0.1c0-0.5-0.3-0.6-0.7-0.6h-1.5
		c-0.4,0-0.7,0.1-0.7,0.7V19c0,0.5,0.3,0.7,0.7,0.7h1.5c0.6,0,0.7-0.1,0.7-0.5V19h0.4v0.2c0,0.6-0.2,0.9-1.1,0.9h-1.6
		c-0.8,0-1.1-0.4-1.1-1.2L36.1,18z"/>
	<path class="st0" d="M42.6,19H43v0.2c0,0.3,0.2,0.5,0.7,0.5H45c0.6,0,0.8-0.1,0.8-0.6c0-0.4-0.2-0.5-0.7-0.5h-0.8
		c-1.3,0-1.7-0.1-1.7-0.9c0-0.7,0.4-0.9,1.3-0.9h0.9c1,0,1.3,0.3,1.3,0.8v0.1h-0.4c0-0.5-0.1-0.6-1.2-0.6h-0.4c-0.8,0-1.1,0-1.1,0.6
		c0,0.4,0.1,0.5,0.8,0.5h1.3c0.8,0,1.2,0.2,1.2,0.8v0.2c0,0.8-0.6,0.8-1.3,0.8h-1.2c-0.6,0-1.2-0.1-1.2-0.8L42.6,19z"/>
	<path class="st0" d="M0,23.6c0-1,0.5-1.2,1.4-1.2h1.2c1.4,0,1.6,0.3,1.6,1.2h-1v-0.1c0-0.2-0.2-0.3-0.5-0.3H1.7
		c-0.5,0-0.6,0.2-0.6,0.7v0.4c0,0.5,0.1,0.7,0.6,0.7h1.1c0.5,0,0.6,0,0.6-0.5h1v0.3c0,0.6-0.2,1-1.2,1H1.4c-0.9,0-1.4-0.2-1.4-1.2
		L0,23.6z"/>
	<path class="st0" d="M4.8,23.6c0-1,0.5-1.2,1.4-1.2h1.6c0.9,0,1.4,0.2,1.4,1.2v1c0,1-0.5,1.2-1.4,1.2H6.3c-0.9,0-1.4-0.2-1.4-1.2
		L4.8,23.6z M5.9,24.2c0,0.5,0.1,0.7,0.6,0.7h1.3c0.5,0,0.6-0.2,0.6-0.7v-0.4c0-0.4-0.1-0.7-0.6-0.7H6.5c-0.5,0-0.6,0.2-0.6,0.7
		L5.9,24.2z"/>
	<path class="st0" d="M10,22.4h1.5l1.1,2.1l1.1-2.1h1.5v3.3h-1v-2.3l0,0L13,25.7h-0.8L11,23.4l0,0v2.3h-1L10,22.4z"/>
	<path class="st0" d="M16.1,22.4h2.7c1,0,1.2,0.5,1.2,1.1v0.3c0,0.5-0.2,1.1-0.9,1.1h-2v0.8h-1V22.4z M17.1,24.1h1.6
		c0.2,0,0.3-0.1,0.3-0.3c0,0,0,0,0-0.1v-0.1c0-0.2-0.1-0.3-0.4-0.3h-1.5V24.1z"/>
	<path class="st0" d="M20.6,22.4h3.6v0.8h-2.6v0.5H24v0.7h-2.4v0.5h2.6v0.8h-3.6V22.4z"/>
	<path class="st0" d="M24.6,22.4h3.8v0.8H27v2.5h-1v-2.5h-1.4L24.6,22.4z"/>
	<path class="st0" d="M29,22.4h1v3.3h-1V22.4z"/>
	<path class="st0" d="M30.5,22.4h3.8v0.8h-1.4v2.5h-1v-2.5h-1.4V22.4z"/>
	<path class="st0" d="M34.9,22.4h1v3.3h-1V22.4z"/>
	<path class="st0" d="M36.6,23.6c0-1,0.5-1.2,1.4-1.2h1.6c0.9,0,1.4,0.2,1.4,1.2v1c0,1-0.5,1.2-1.4,1.2H38c-0.9,0-1.4-0.2-1.4-1.2
		V23.6z M37.6,24.2c0,0.5,0.1,0.7,0.6,0.7h1.3c0.5,0,0.6-0.2,0.6-0.7v-0.4c0-0.4-0.1-0.7-0.6-0.7h-1.2c-0.5,0-0.6,0.2-0.6,0.7
		L37.6,24.2z"/>
	<path class="st0" d="M41.7,22.4h1.6l1.9,2.4l0,0v-2.4h1v3.3h-1.6l-1.9-2.4l0,0v2.4h-1L41.7,22.4z"/>
	<path class="st0" d="M41.9,5.9C41.9,5.9,41.9,5.9,41.9,5.9l-4.1,2.8l-4-2.8c0,0-0.1,0-0.1,0h-3.5c-0.1,0-0.1,0-0.2,0.1c0,0,0,0,0,0
		c0,0.1,0,0.1,0.1,0.1l5.7,3.9c-0.4,0.3-6.2,4.2-6.2,4.2c0,0-0.1,0.1-0.1,0.1c0,0,0,0,0,0.1c0,0.1,0.1,0.1,0.2,0.1h3.6
		c0,0,0.1,0,0.1,0l4.4-3.1l4.4,3.1c0,0,0.1,0,0.1,0h3.6c0.1,0,0.1,0,0.2-0.1c0,0,0,0,0-0.1c0-0.1,0-0.1-0.1-0.1l-6.2-4.2l5.8-3.9
		c0,0,0.1-0.1,0.1-0.1c0,0,0,0,0,0c0-0.1-0.1-0.1-0.2-0.1H41.9z"/>
	<path class="st0" d="M14.1,5.9c-0.1,0-0.1,0-0.1,0.1l-5.3,6.5L3.4,5.9c0,0-0.1-0.1-0.1-0.1h-3c-0.1,0-0.1,0-0.2,0.1
		c0,0.1,0,0.1,0,0.2l6.9,8.3c0,0,0.1,0.1,0.1,0.1h2.9c0,0,0.1,0,0.1-0.1l7-8.3c0.1-0.1,0.1-0.2,0-0.2c0,0,0,0,0,0c0,0-0.1,0-0.1,0
		H14.1z"/>
	<path class="st0" d="M18.8,5.9c-0.4-0.7-0.6-1.5-0.5-2.4c0-1.9,1-3.5,2.1-3.5h7.3c0.4,0,0.7,0.5,0.7,1.2s-0.3,1.2-0.7,1.2h-7.3
		c-0.4,0-0.7,0.5-0.7,1.1s0.3,1.2,0.7,1.2h7.3c0.4,0,0.7,0.5,0.7,1.2l0,0c0,0.6-0.3,1.2-0.7,1.2h-7.3c-0.4,0-0.7,0.6-0.7,1.2
		s0.3,1.1,0.7,1.1h7.3c0.4,0,0.7,0.5,0.7,1.2s-0.3,1.2-0.7,1.2h-7.3c-1.2,0-2.1-1.6-2.1-3.5C18.2,7.4,18.4,6.6,18.8,5.9z"/>
	<path class="st0" d="M45.5,12.1c0.1,0,0.2,0,0.3,0.1c0.1,0,0.2,0.1,0.2,0.2c0.1,0.2,0.1,0.4,0,0.6c0,0.1-0.1,0.2-0.2,0.2
		c-0.2,0.1-0.4,0.1-0.6,0c-0.1,0-0.2-0.1-0.2-0.2c0-0.1-0.1-0.2-0.1-0.3c0-0.1,0-0.2,0.1-0.3c0-0.1,0.1-0.2,0.2-0.2
		C45.3,12.2,45.4,12.1,45.5,12.1z M45.5,12.2c-0.1,0-0.2,0-0.2,0.1c-0.1,0-0.1,0.1-0.2,0.2c-0.1,0.1-0.1,0.3,0,0.5
		c0.1,0.2,0.4,0.3,0.7,0.2c0.1,0,0.1-0.1,0.2-0.2c0.1-0.1,0.1-0.3,0-0.5c0-0.1-0.1-0.1-0.2-0.2C45.7,12.3,45.6,12.2,45.5,12.2
		L45.5,12.2z M45.2,13v-0.6h0.2c0.1,0,0.1,0,0.2,0c0,0,0.1,0,0.1,0.1c0,0,0,0.1,0,0.1c0,0,0,0.1,0,0.1c0,0-0.1,0.1-0.1,0.1
		c0,0,0,0,0.1,0c0,0,0.1,0.1,0.1,0.1l0.1,0.1h-0.1l-0.1-0.1c0-0.1-0.1-0.1-0.1-0.1c0,0-0.1,0-0.1,0h-0.1L45.2,13L45.2,13z
		 M45.3,12.7h0.1c0,0,0.1,0,0.1,0c0,0,0,0,0-0.1c0,0,0,0,0,0c0,0,0,0,0,0c0,0-0.1,0-0.1,0h-0.1V12.7z"/>
</g>
</svg>
